<svg id="draw.id" overflow="visible" v:layers="{&quot;default&quot;:{&quot;name&quot;:&quot;Default&quot;,&quot;print&quot;:0,&quot;display&quot;:1,&quot;publish&quot;:0},&quot;jx575u50pt&quot;:{&quot;name&quot;:&quot;Untitled layer&quot;,&quot;print&quot;:1,&quot;display&quot;:1,&quot;publish&quot;:1}}" v:ver="2" x="500.5" xmlns="http://www.w3.org/2000/svg" xmlns:v="http://vecta.io" xmlns:xlink="http://www.w3.org/1999/xlink" y="500.5" v:stencils="{&quot;0&quot;:{&quot;id&quot;:&quot;stencil_65&quot;,&quot;expand&quot;:0,&quot;show_name&quot;:1}}"><style xmlns="http://www.w3.org/1999/xhtml"><![CDATA[#draw\.id{stroke:#000;stroke-linecap:round;stroke-linejoin:round;fill:#fff;fill-rule:evenodd;font-family:Roboto;font-size:14px;text-anchor:middle}#draw\.id text{paint-order:stroke}#draw\.id .Text\.cls{stroke:none}]]></style><defs><linearGradient id="L00100100000aaff10000387f.grad" x1="0%" y1="0%" x2="100%" y2="100%"><stop offset="0%" stop-color="#00aaff" stop-opacity="1"/><stop offset="100%" stop-color="#00387f" stop-opacity="1"/></linearGradient><linearGradient id="L001001000808080100000000.grad" x1="0%" y1="0%" x2="100%" y2="100%"><stop offset="0%" stop-color="#808080" stop-opacity="1"/><stop offset="100%" stop-color="#000000" stop-opacity="1"/></linearGradient><linearGradient id="L001001000808080100100000000100.grad" x1="0%" y1="0%" x2="100%" y2="100%"><stop offset="0%" stop-color="#808080" stop-opacity="1"/><stop offset="100%" stop-color="#000000" stop-opacity="1"/></linearGradient><linearGradient id="L001001000f1a9eb100672965.grad" x1="0%" y1="0%" x2="100%" y2="100%"><stop offset="0%" stop-color="#f1a9eb" stop-opacity="1"/><stop offset="100%" stop-color="#672965" stop-opacity="1"/></linearGradient><linearGradient id="L001001000ffd194100d1913c.grad" x1="0%" y1="0%" x2="100%" y2="100%"><stop offset="0%" stop-color="#ffd194"/><stop offset="100%" stop-color="#d1913c"/></linearGradient><linearGradient id="L06710033090a4ae100ECEFF1.grad" x1="0%" y1="67%" x2="100%" y2="33%"><stop offset="0%" stop-color="#90a4ae"/><stop offset="100%" stop-color="#ECEFF1"/></linearGradient><linearGradient id="L0941006090a4ae100B0BEC5.grad" x1="0%" y1="94%" x2="100%" y2="6%"><stop offset="0%" stop-color="#90a4ae"/><stop offset="100%" stop-color="#B0BEC5"/></linearGradient><linearGradient id="L100100000578fff1008ab1ff.grad" x1="100%" y1="100%" x2="0%" y2="0%"><stop offset="0%" stop-color="#578fff"/><stop offset="100%" stop-color="#8ab1ff"/></linearGradient><linearGradient id="L10010000057c7ff1008ad8ff.grad" x1="100%" y1="100%" x2="0%" y2="0%"><stop offset="0%" stop-color="#57c7ff"/><stop offset="100%" stop-color="#8ad8ff"/></linearGradient><linearGradient id="L10010000057ffff1008affff.grad" x1="100%" y1="100%" x2="0%" y2="0%"><stop offset="0%" stop-color="#57ffff"/><stop offset="100%" stop-color="#8affff"/></linearGradient><linearGradient id="L1001000008fff57100b1ff8a.grad" x1="100%" y1="100%" x2="0%" y2="0%"><stop offset="0%" stop-color="#8fff57"/><stop offset="100%" stop-color="#b1ff8a"/></linearGradient><linearGradient id="L100100000c757ff100d88aff.grad" x1="100%" y1="100%" x2="0%" y2="0%"><stop offset="0%" stop-color="#c757ff"/><stop offset="100%" stop-color="#d88aff"/></linearGradient><linearGradient id="L100100000c7ff57100d8ff8a.grad" x1="100%" y1="100%" x2="0%" y2="0%"><stop offset="0%" stop-color="#c7ff57"/><stop offset="100%" stop-color="#d8ff8a"/></linearGradient><linearGradient id="L100100000ff578f100ff8ab1.grad" x1="100%" y1="100%" x2="0%" y2="0%"><stop offset="0%" stop-color="#ff578f"/><stop offset="100%" stop-color="#ff8ab1"/></linearGradient><linearGradient id="L100100000ff57e3100ff8aeb.grad" x1="100%" y1="100%" x2="0%" y2="0%"><stop offset="0%" stop-color="#ff57e3"/><stop offset="100%" stop-color="#ff8aeb"/></linearGradient><linearGradient id="L100100000ff7357100ff9d8a.grad" x1="100%" y1="100%" x2="0%" y2="0%"><stop offset="0%" stop-color="#ff7357"/><stop offset="100%" stop-color="#ff9d8a"/></linearGradient><linearGradient id="L100100000ffab57100ffc48a.grad" x1="100%" y1="100%" x2="0%" y2="0%"><stop offset="0%" stop-color="#ffab57"/><stop offset="100%" stop-color="#ffc48a"/></linearGradient><linearGradient id="L100100000ffe357100ffeb8a.grad" x1="100%" y1="100%" x2="0%" y2="0%"><stop offset="0%" stop-color="#ffe357"/><stop offset="100%" stop-color="#ffeb8a"/></linearGradient><linearGradient id="L100100000ffff57100ffff8a.grad" x1="100%" y1="100%" x2="0%" y2="0%"><stop offset="0%" stop-color="#ffff57"/><stop offset="100%" stop-color="#ffff8a"/></linearGradient><linearGradient id="L170831000E0E0E0100757575.grad" x1="17%" y1="0%" x2="83%" y2="100%"><stop offset="0%" stop-color="#E0E0E0"/><stop offset="100%" stop-color="#757575"/></linearGradient><linearGradient id="L5005010004387FD1004683EA.grad" x1="50%" y1="0%" x2="50%" y2="100%"><stop offset="0%" stop-color="#4387FD"/><stop offset="100%" stop-color="#4683EA"/></linearGradient><linearGradient id="L611003900000000100100808080100.grad" x1="61%" y1="100%" x2="39%" y2="0%"><stop offset="0%" stop-color="#000000" stop-opacity="1"/><stop offset="100%" stop-color="#808080" stop-opacity="1"/></linearGradient><clipPath id="jw8nw00y2b8.clip"><path d="M 0 15 C 0 6.69 6.69 0 15 0 L 399 0 C 407.31 0 414 6.69 414 15 L 414 813 C 414 821.31 407.31 828 399 828 L 15 828 C 6.69 828 0 821.31 0 813 Z" stroke="hsla(0,0%,100%,1)" stroke-width="1" transform="translate(0 0)"/></clipPath><clipPath id="jw8nwu5f2en.clip"><path d="M 480 947.0445 C 480 966 463.5 986 440.1188 986 L 40.1346 986 C 10 986 0 960 0 949.9712 L 0 39.7345 C 0 16 20 0 39.7865 0 L 130.3007 0 C 139.25 0 145 7.75 145 14.1357 L 145 14 C 145 30.62 158.38 44 175 44 L 305 44 C 321.62 44 335 30.62 335 14 L 335 13.8857 C 335 8.75 340 0 349.9493 0 L 439.7751 0 C 464.5 0 480 20.5 480 39.9367 Z" stroke="hsla(0,0%,100%,1)" stroke-width="1" transform="translate(0 0)"/></clipPath><clipPath id="jw8nxjem3h1.clip"><path d="M 0 40 C 0 17.84 17.84 0 40 0 L 374 0 C 396.16 0 414 17.84 414 40 L 414 834 C 414 856.16 396.16 874 374 874 L 40 874 C 17.84 874 0 856.16 0 834 Z" stroke="hsla(0,0%,100%,1)" transform="translate(1.1517835812563817 3)"/></clipPath><clipPath id="jw8ny4f43i0.clip"><path d="M 0 40 C 0 17.84 17.84 0 40 0 L 440 0 C 462.16 0 480 17.84 480 40 L 480 973 C 480 995.16 462.16 1013 440 1013 L 40 1013 C 17.84 1013 0 995.16 0 973 Z" stroke="hsla(0,0%,100%,1)" stroke-width="1" transform="translate(6 8.642899999999997)"/></clipPath><clipPath id="jw8o1udg4wt.clip"><path d="M 43.54657451923149 0 L 149.36523437499966 0 C 180.34197716346247 0 180.34197716346247 30.062344341105906 206.68347355769168 30.062344341105906 C 233.02496995192348 30.062344341105906 233.02496995192348 0 264.0775615985576 0 L 375.48191105769286 0 C 390.62403846153893 0 396.11487379807704 1.5754000230444005 401.65063100961584 4.533742296454201 C 407.18638822115395 7.4920414082198015 411.530851862981 11.833239608706302 414.4913762019235 17.364835963593304 C 417.45190054086584 22.896389156836005 419.02848557692346 28.383140563119007 419.02848557692346 43.51388664745901 L 419.02848557692346 839.0223144317017 C 419.02848557692346 854.1529741927511 417.45190054086584 859.6397687606808 414.4913762019235 865.171365115567 C 411.530851862981 870.7028751471631 407.18638822115395 875.0440733476512 401.65063100961584 878.0024587827053 C 396.11487379807704 880.9607578944717 390.62403846153893 882.5361579175152 375.48191105769286 882.5361579175152 L 43.54657451923149 882.5361579175152 C 28.404447115384198 882.5361579175152 22.913611778847397 880.9607578944717 17.377854567307896 878.0024587827053 C 11.842097355768498 875.0440733476512 7.497633713942099 870.7028751471631 4.537109374999999 865.171365115567 C 1.5765850360578997 859.6397687606808 0 854.1529741927511 0 839.0223144317017 L 0 43.51388664745901 C 0 28.383140563119007 1.5765850360578997 22.896389156836005 4.537109374999999 17.364835963593304 C 7.497633713942099 11.833239608706302 11.842097355768498 7.4920414082198015 17.377854567307896 4.533742296454201 C 22.913611778847397 1.5754000230444005 28.404447115384198 0 43.54657451923149 0 Z" fill="hsla(0,0%,20%,1)" stroke="none" transform="translate(0 0)"/></clipPath><clipPath id="jw8pi2jcloi.clip"><path d="M 335.8927317333333 814.0000000000001 C 362.464 814.0000000000001 376 790.972109720438 376 774.0900697557959 L 376 39.9095124786729 C 376 15.5326649749132 354.944 0.0138998239484 336.1203370666667 0.0138998239484 L 298.2586410666667 0.0138998239484 C 296.288 0.0138998239484 292.7786666666667 2.3917210306186 292.7943082666667 5.7074945327155 C 292.7786666666667 7.1475636899658 292.7786666666667 8.3184020911954 292.7786666666667 10.0259999134094 C 292.7786666666667 21.1194284391008 283.83488 30.0503002153345 272.7253333333333 30.0503002153345 L 103.2746666666667 30.0503002153345 C 92.16512 30.0503002153345 83.2213333333333 21.1194284391008 83.2213333333333 10.0259999134094 C 83.2213333333333 7.9584598941353 83.2213333333333 8.5241548630892 83.2320618666667 6.3454783100915 C 83.2213333333333 2.0162597680386 79.8373333333333 0.0138998239484 77.4965077333333 0.0138998239484 L 39.9373162666667 0.0138998239484 C 23.0613333333333 -0.4867151928249 0 12.5290749972763 0 40.0629009198122 L 0 774.0901698787992 C 0 797.9806198322619 19.552 814.0000000000001 40.107168 814.0000000000001 Z" stroke="hsla(0,0%,100%,1)" stroke-width="1" transform="translate(1.6289867642501576 1)"/></clipPath><clipPath id="jw8pmnlrt78.clip"><path d="M 369.8393 895.9999976352831 C 399.096 895.9999976352831 414 870.652297635283 414 852.0696976352831 L 414 43.9298976352831 C 414 17.097397635283 390.816 0.015297635283 370.0899 0.015297635283 L 328.4018 0.015297635283 C 326.232 0.015297635283 322.368 2.632697635283 322.3852 6.282497635283 C 322.368 7.867597635283 322.368 9.156397635283 322.368 11.035997635283 C 322.368 23.246897635283 312.5203 33.0774976352831 300.288 33.0774976352831 L 113.712 33.0774976352831 C 101.4797 33.0774976352831 91.632 23.246897635283 91.632 11.035997635283 C 91.632 8.760197635283 91.632 9.382897635283 91.6438 6.984697635283 C 91.632 2.219397635283 87.906 0.015297635283 85.3286 0.015297635283 L 43.9735 0.015297635283 C 25.392 -0.535702364717 0 13.791197635283 0 44.0986976352831 L 0 852.0697976352831 C 0 878.3668976352831 21.528 895.9999976352831 44.1606 895.9999976352831 Z" stroke="hsla(0,0%,100%,1)" stroke-width="1" transform="translate(0.9199223449481906 1.0000011823585737)"/></clipPath><clipPath id="jw8uzo6nb9b.clip"><rect x="0" y="0" width="480" height="1040" stroke-width="0.2" stroke="none" rx="40" class="" transform="translate(0.999964282226756 1.16666664971126)"/></clipPath><clipPath id="jwpugewnio.clip"><path d="M 0 0 L 375 0 L 375 667 L 0 667 Z" fill="hsla(240,8%,12%,1)" fill-opacity="1" stroke="hsla(0,0%,75%,1)" stroke-linejoin="miter" stroke-width="1" transform="translate(146.49997790527343 1)"/></clipPath><clipPath id="jwpuhbtxk8.clip"><path d="M 0 0 L 414 0 L 414 736 L 0 736 Z" stroke="hsla(0,0%,75%,1)" stroke-linejoin="miter" stroke-width="1" transform="translate(161.99995786132808 1)"/></clipPath><link rel="stylesheet" data-is-imported="true" media="" href="data:text/css,%2F*%20cyrillic-ext%20*%2F%0A%40font-face%20%7B%0A%20%20font-family%3A%20'Roboto%20Condensed'%3B%0A%20%20font-style%3A%20italic%3B%0A%20%20font-weight%3A%20400%3B%0A%20%20src%3A%20local('Roboto%20Condensed%20Italic')%2C%20local('RobotoCondensed-Italic')%2C%20url(https%3A%2F%2Ffonts.gstatic.com%2Fs%2Frobotocondensed%2Fv17%2FieVj2ZhZI2eCN5jzbjEETS9weq8-19eLAgM9UvI.woff2)%20format('woff2')%3B%0A%20%20unicode-range%3A%20U%2B0460-052F%2C%20U%2B1C80-1C88%2C%20U%2B20B4%2C%20U%2B2DE0-2DFF%2C%20U%2BA640-A69F%2C%20U%2BFE2E-FE2F%3B%0A%7D%0A%2F*%20cyrillic%20*%2F%0A%40font-face%20%7B%0A%20%20font-family%3A%20'Roboto%20Condensed'%3B%0A%20%20font-style%3A%20italic%3B%0A%20%20font-weight%3A%20400%3B%0A%20%20src%3A%20local('Roboto%20Condensed%20Italic')%2C%20local('RobotoCondensed-Italic')%2C%20url(https%3A%2F%2Ffonts.gstatic.com%2Fs%2Frobotocondensed%2Fv17%2FieVj2ZhZI2eCN5jzbjEETS9weq8-19eLCwM9UvI.woff2)%20format('woff2')%3B%0A%20%20unicode-range%3A%20U%2B0400-045F%2C%20U%2B0490-0491%2C%20U%2B04B0-04B1%2C%20U%2B2116%3B%0A%7D%0A%2F*%20greek-ext%20*%2F%0A%40font-face%20%7B%0A%20%20font-family%3A%20'Roboto%20Condensed'%3B%0A%20%20font-style%3A%20italic%3B%0A%20%20font-weight%3A%20400%3B%0A%20%20src%3A%20local('Roboto%20Condensed%20Italic')%2C%20local('RobotoCondensed-Italic')%2C%20url(https%3A%2F%2Ffonts.gstatic.com%2Fs%2Frobotocondensed%2Fv17%2FieVj2ZhZI2eCN5jzbjEETS9weq8-19eLAwM9UvI.woff2)%20format('woff2')%3B%0A%20%20unicode-range%3A%20U%2B1F00-1FFF%3B%0A%7D%0A%2F*%20greek%20*%2F%0A%40font-face%20%7B%0A%20%20font-family%3A%20'Roboto%20Condensed'%3B%0A%20%20font-style%3A%20italic%3B%0A%20%20font-weight%3A%20400%3B%0A%20%20src%3A%20local('Roboto%20Condensed%20Italic')%2C%20local('RobotoCondensed-Italic')%2C%20url(https%3A%2F%2Ffonts.gstatic.com%2Fs%2Frobotocondensed%2Fv17%2FieVj2ZhZI2eCN5jzbjEETS9weq8-19eLDAM9UvI.woff2)%20format('woff2')%3B%0A%20%20unicode-range%3A%20U%2B0370-03FF%3B%0A%7D%0A%2F*%20vietnamese%20*%2F%0A%40font-face%20%7B%0A%20%20font-family%3A%20'Roboto%20Condensed'%3B%0A%20%20font-style%3A%20italic%3B%0A%20%20font-weight%3A%20400%3B%0A%20%20src%3A%20local('Roboto%20Condensed%20Italic')%2C%20local('RobotoCondensed-Italic')%2C%20url(https%3A%2F%2Ffonts.gstatic.com%2Fs%2Frobotocondensed%2Fv17%2FieVj2ZhZI2eCN5jzbjEETS9weq8-19eLAAM9UvI.woff2)%20format('woff2')%3B%0A%20%20unicode-range%3A%20U%2B0102-0103%2C%20U%2B0110-0111%2C%20U%2B1EA0-1EF9%2C%20U%2B20AB%3B%0A%7D%0A%2F*%20latin-ext%20*%2F%0A%40font-face%20%7B%0A%20%20font-family%3A%20'Roboto%20Condensed'%3B%0A%20%20font-style%3A%20italic%3B%0A%20%20font-weight%3A%20400%3B%0A%20%20src%3A%20local('Roboto%20Condensed%20Italic')%2C%20local('RobotoCondensed-Italic')%2C%20url(https%3A%2F%2Ffonts.gstatic.com%2Fs%2Frobotocondensed%2Fv17%2FieVj2ZhZI2eCN5jzbjEETS9weq8-19eLAQM9UvI.woff2)%20format('woff2')%3B%0A%20%20unicode-range%3A%20U%2B0100-024F%2C%20U%2B0259%2C%20U%2B1E00-1EFF%2C%20U%2B2020%2C%20U%2B20A0-20AB%2C%20U%2B20AD-20CF%2C%20U%2B2113%2C%20U%2B2C60-2C7F%2C%20U%2BA720-A7FF%3B%0A%7D%0A%2F*%20latin%20*%2F%0A%40font-face%20%7B%0A%20%20font-family%3A%20'Roboto%20Condensed'%3B%0A%20%20font-style%3A%20italic%3B%0A%20%20font-weight%3A%20400%3B%0A%20%20src%3A%20local('Roboto%20Condensed%20Italic')%2C%20local('RobotoCondensed-Italic')%2C%20url(https%3A%2F%2Ffonts.gstatic.com%2Fs%2Frobotocondensed%2Fv17%2FieVj2ZhZI2eCN5jzbjEETS9weq8-19eLDwM9.woff2)%20format('woff2')%3B%0A%20%20unicode-range%3A%20U%2B0000-00FF%2C%20U%2B0131%2C%20U%2B0152-0153%2C%20U%2B02BB-02BC%2C%20U%2B02C6%2C%20U%2B02DA%2C%20U%2B02DC%2C%20U%2B2000-206F%2C%20U%2B2074%2C%20U%2B20AC%2C%20U%2B2122%2C%20U%2B2191%2C%20U%2B2193%2C%20U%2B2212%2C%20U%2B2215%2C%20U%2BFEFF%2C%20U%2BFFFD%3B%0A%7D%0A%2F*%20cyrillic-ext%20*%2F%0A%40font-face%20%7B%0A%20%20font-family%3A%20'Roboto%20Condensed'%3B%0A%20%20font-style%3A%20italic%3B%0A%20%20font-weight%3A%20700%3B%0A%20%20src%3A%20local('Roboto%20Condensed%20Bold%20Italic')%2C%20local('RobotoCondensed-BoldItalic')%2C%20url(https%3A%2F%2Ffonts.gstatic.com%2Fs%2Frobotocondensed%2Fv17%2FieVg2ZhZI2eCN5jzbjEETS9weq8-19eDtCYoYNNZQyQ.woff2)%20format('woff2')%3B%0A%20%20unicode-range%3A%20U%2B0460-052F%2C%20U%2B1C80-1C88%2C%20U%2B20B4%2C%20U%2B2DE0-2DFF%2C%20U%2BA640-A69F%2C%20U%2BFE2E-FE2F%3B%0A%7D%0A%2F*%20cyrillic%20*%2F%0A%40font-face%20%7B%0A%20%20font-family%3A%20'Roboto%20Condensed'%3B%0A%20%20font-style%3A%20italic%3B%0A%20%20font-weight%3A%20700%3B%0A%20%20src%3A%20local('Roboto%20Condensed%20Bold%20Italic')%2C%20local('RobotoCondensed-BoldItalic')%2C%20url(https%3A%2F%2Ffonts.gstatic.com%2Fs%2Frobotocondensed%2Fv17%2FieVg2ZhZI2eCN5jzbjEETS9weq8-19eDtCYoadNZQyQ.woff2)%20format('woff2')%3B%0A%20%20unicode-range%3A%20U%2B0400-045F%2C%20U%2B0490-0491%2C%20U%2B04B0-04B1%2C%20U%2B2116%3B%0A%7D%0A%2F*%20greek-ext%20*%2F%0A%40font-face%20%7B%0A%20%20font-family%3A%20'Roboto%20Condensed'%3B%0A%20%20font-style%3A%20italic%3B%0A%20%20font-weight%3A%20700%3B%0A%20%20src%3A%20local('Roboto%20Condensed%20Bold%20Italic')%2C%20local('RobotoCondensed-BoldItalic')%2C%20url(https%3A%2F%2Ffonts.gstatic.com%2Fs%2Frobotocondensed%2Fv17%2FieVg2ZhZI2eCN5jzbjEETS9weq8-19eDtCYoYdNZQyQ.woff2)%20format('woff2')%3B%0A%20%20unicode-range%3A%20U%2B1F00-1FFF%3B%0A%7D%0A%2F*%20greek%20*%2F%0A%40font-face%20%7B%0A%20%20font-family%3A%20'Roboto%20Condensed'%3B%0A%20%20font-style%3A%20italic%3B%0A%20%20font-weight%3A%20700%3B%0A%20%20src%3A%20local('Roboto%20Condensed%20Bold%20Italic')%2C%20local('RobotoCondensed-BoldItalic')%2C%20url(https%3A%2F%2Ffonts.gstatic.com%2Fs%2Frobotocondensed%2Fv17%2FieVg2ZhZI2eCN5jzbjEETS9weq8-19eDtCYobtNZQyQ.woff2)%20format('woff2')%3B%0A%20%20unicode-range%3A%20U%2B0370-03FF%3B%0A%7D%0A%2F*%20vietnamese%20*%2F%0A%40font-face%20%7B%0A%20%20font-family%3A%20'Roboto%20Condensed'%3B%0A%20%20font-style%3A%20italic%3B%0A%20%20font-weight%3A%20700%3B%0A%20%20src%3A%20local('Roboto%20Condensed%20Bold%20Italic')%2C%20local('RobotoCondensed-BoldItalic')%2C%20url(https%3A%2F%2Ffonts.gstatic.com%2Fs%2Frobotocondensed%2Fv17%2FieVg2ZhZI2eCN5jzbjEETS9weq8-19eDtCYoYtNZQyQ.woff2)%20format('woff2')%3B%0A%20%20unicode-range%3A%20U%2B0102-0103%2C%20U%2B0110-0111%2C%20U%2B1EA0-1EF9%2C%20U%2B20AB%3B%0A%7D%0A%2F*%20latin-ext%20*%2F%0A%40font-face%20%7B%0A%20%20font-family%3A%20'Roboto%20Condensed'%3B%0A%20%20font-style%3A%20italic%3B%0A%20%20font-weight%3A%20700%3B%0A%20%20src%3A%20local('Roboto%20Condensed%20Bold%20Italic')%2C%20local('RobotoCondensed-BoldItalic')%2C%20url(https%3A%2F%2Ffonts.gstatic.com%2Fs%2Frobotocondensed%2Fv17%2FieVg2ZhZI2eCN5jzbjEETS9weq8-19eDtCYoY9NZQyQ.woff2)%20format('woff2')%3B%0A%20%20unicode-range%3A%20U%2B0100-024F%2C%20U%2B0259%2C%20U%2B1E00-1EFF%2C%20U%2B2020%2C%20U%2B20A0-20AB%2C%20U%2B20AD-20CF%2C%20U%2B2113%2C%20U%2B2C60-2C7F%2C%20U%2BA720-A7FF%3B%0A%7D%0A%2F*%20latin%20*%2F%0A%40font-face%20%7B%0A%20%20font-family%3A%20'Roboto%20Condensed'%3B%0A%20%20font-style%3A%20italic%3B%0A%20%20font-weight%3A%20700%3B%0A%20%20src%3A%20local('Roboto%20Condensed%20Bold%20Italic')%2C%20local('RobotoCondensed-BoldItalic')%2C%20url(https%3A%2F%2Ffonts.gstatic.com%2Fs%2Frobotocondensed%2Fv17%2FieVg2ZhZI2eCN5jzbjEETS9weq8-19eDtCYobdNZ.woff2)%20format('woff2')%3B%0A%20%20unicode-range%3A%20U%2B0000-00FF%2C%20U%2B0131%2C%20U%2B0152-0153%2C%20U%2B02BB-02BC%2C%20U%2B02C6%2C%20U%2B02DA%2C%20U%2B02DC%2C%20U%2B2000-206F%2C%20U%2B2074%2C%20U%2B20AC%2C%20U%2B2122%2C%20U%2B2191%2C%20U%2B2193%2C%20U%2B2212%2C%20U%2B2215%2C%20U%2BFEFF%2C%20U%2BFFFD%3B%0A%7D%0A%2F*%20cyrillic-ext%20*%2F%0A%40font-face%20%7B%0A%20%20font-family%3A%20'Roboto%20Condensed'%3B%0A%20%20font-style%3A%20normal%3B%0A%20%20font-weight%3A%20400%3B%0A%20%20src%3A%20local('Roboto%20Condensed')%2C%20local('RobotoCondensed-Regular')%2C%20url(https%3A%2F%2Ffonts.gstatic.com%2Fs%2Frobotocondensed%2Fv17%2FieVl2ZhZI2eCN5jzbjEETS9weq8-19-7DRs5.woff2)%20format('woff2')%3B%0A%20%20unicode-range%3A%20U%2B0460-052F%2C%20U%2B1C80-1C88%2C%20U%2B20B4%2C%20U%2B2DE0-2DFF%2C%20U%2BA640-A69F%2C%20U%2BFE2E-FE2F%3B%0A%7D%0A%2F*%20cyrillic%20*%2F%0A%40font-face%20%7B%0A%20%20font-family%3A%20'Roboto%20Condensed'%3B%0A%20%20font-style%3A%20normal%3B%0A%20%20font-weight%3A%20400%3B%0A%20%20src%3A%20local('Roboto%20Condensed')%2C%20local('RobotoCondensed-Regular')%2C%20url(https%3A%2F%2Ffonts.gstatic.com%2Fs%2Frobotocondensed%2Fv17%2FieVl2ZhZI2eCN5jzbjEETS9weq8-19a7DRs5.woff2)%20format('woff2')%3B%0A%20%20unicode-range%3A%20U%2B0400-045F%2C%20U%2B0490-0491%2C%20U%2B04B0-04B1%2C%20U%2B2116%3B%0A%7D%0A%2F*%20greek-ext%20*%2F%0A%40font-face%20%7B%0A%20%20font-family%3A%20'Roboto%20Condensed'%3B%0A%20%20font-style%3A%20normal%3B%0A%20%20font-weight%3A%20400%3B%0A%20%20src%3A%20local('Roboto%20Condensed')%2C%20local('RobotoCondensed-Regular')%2C%20url(https%3A%2F%2Ffonts.gstatic.com%2Fs%2Frobotocondensed%2Fv17%2FieVl2ZhZI2eCN5jzbjEETS9weq8-1967DRs5.woff2)%20format('woff2')%3B%0A%20%20unicode-range%3A%20U%2B1F00-1FFF%3B%0A%7D%0A%2F*%20greek%20*%2F%0A%40font-face%20%7B%0A%20%20font-family%3A%20'Roboto%20Condensed'%3B%0A%20%20font-style%3A%20normal%3B%0A%20%20font-weight%3A%20400%3B%0A%20%20src%3A%20local('Roboto%20Condensed')%2C%20local('RobotoCondensed-Regular')%2C%20url(https%3A%2F%2Ffonts.gstatic.com%2Fs%2Frobotocondensed%2Fv17%2FieVl2ZhZI2eCN5jzbjEETS9weq8-19G7DRs5.woff2)%20format('woff2')%3B%0A%20%20unicode-range%3A%20U%2B0370-03FF%3B%0A%7D%0A%2F*%20vietnamese%20*%2F%0A%40font-face%20%7B%0A%20%20font-family%3A%20'Roboto%20Condensed'%3B%0A%20%20font-style%3A%20normal%3B%0A%20%20font-weight%3A%20400%3B%0A%20%20src%3A%20local('Roboto%20Condensed')%2C%20local('RobotoCondensed-Regular')%2C%20url(https%3A%2F%2Ffonts.gstatic.com%2Fs%2Frobotocondensed%2Fv17%2FieVl2ZhZI2eCN5jzbjEETS9weq8-1927DRs5.woff2)%20format('woff2')%3B%0A%20%20unicode-range%3A%20U%2B0102-0103%2C%20U%2B0110-0111%2C%20U%2B1EA0-1EF9%2C%20U%2B20AB%3B%0A%7D%0A%2F*%20latin-ext%20*%2F%0A%40font-face%20%7B%0A%20%20font-family%3A%20'Roboto%20Condensed'%3B%0A%20%20font-style%3A%20normal%3B%0A%20%20font-weight%3A%20400%3B%0A%20%20src%3A%20local('Roboto%20Condensed')%2C%20local('RobotoCondensed-Regular')%2C%20url(https%3A%2F%2Ffonts.gstatic.com%2Fs%2Frobotocondensed%2Fv17%2FieVl2ZhZI2eCN5jzbjEETS9weq8-19y7DRs5.woff2)%20format('woff2')%3B%0A%20%20unicode-range%3A%20U%2B0100-024F%2C%20U%2B0259%2C%20U%2B1E00-1EFF%2C%20U%2B2020%2C%20U%2B20A0-20AB%2C%20U%2B20AD-20CF%2C%20U%2B2113%2C%20U%2B2C60-2C7F%2C%20U%2BA720-A7FF%3B%0A%7D%0A%2F*%20latin%20*%2F%0A%40font-face%20%7B%0A%20%20font-family%3A%20'Roboto%20Condensed'%3B%0A%20%20font-style%3A%20normal%3B%0A%20%20font-weight%3A%20400%3B%0A%20%20src%3A%20local('Roboto%20Condensed')%2C%20local('RobotoCondensed-Regular')%2C%20url(https%3A%2F%2Ffonts.gstatic.com%2Fs%2Frobotocondensed%2Fv17%2FieVl2ZhZI2eCN5jzbjEETS9weq8-19K7DQ.woff2)%20format('woff2')%3B%0A%20%20unicode-range%3A%20U%2B0000-00FF%2C%20U%2B0131%2C%20U%2B0152-0153%2C%20U%2B02BB-02BC%2C%20U%2B02C6%2C%20U%2B02DA%2C%20U%2B02DC%2C%20U%2B2000-206F%2C%20U%2B2074%2C%20U%2B20AC%2C%20U%2B2122%2C%20U%2B2191%2C%20U%2B2193%2C%20U%2B2212%2C%20U%2B2215%2C%20U%2BFEFF%2C%20U%2BFFFD%3B%0A%7D%0A%2F*%20cyrillic-ext%20*%2F%0A%40font-face%20%7B%0A%20%20font-family%3A%20'Roboto%20Condensed'%3B%0A%20%20font-style%3A%20normal%3B%0A%20%20font-weight%3A%20700%3B%0A%20%20src%3A%20local('Roboto%20Condensed%20Bold')%2C%20local('RobotoCondensed-Bold')%2C%20url(https%3A%2F%2Ffonts.gstatic.com%2Fs%2Frobotocondensed%2Fv17%2FieVi2ZhZI2eCN5jzbjEETS9weq8-32meGCkYb8td.woff2)%20format('woff2')%3B%0A%20%20unicode-range%3A%20U%2B0460-052F%2C%20U%2B1C80-1C88%2C%20U%2B20B4%2C%20U%2B2DE0-2DFF%2C%20U%2BA640-A69F%2C%20U%2BFE2E-FE2F%3B%0A%7D%0A%2F*%20cyrillic%20*%2F%0A%40font-face%20%7B%0A%20%20font-family%3A%20'Roboto%20Condensed'%3B%0A%20%20font-style%3A%20normal%3B%0A%20%20font-weight%3A%20700%3B%0A%20%20src%3A%20local('Roboto%20Condensed%20Bold')%2C%20local('RobotoCondensed-Bold')%2C%20url(https%3A%2F%2Ffonts.gstatic.com%2Fs%2Frobotocondensed%2Fv17%2FieVi2ZhZI2eCN5jzbjEETS9weq8-32meGCAYb8td.woff2)%20format('woff2')%3B%0A%20%20unicode-range%3A%20U%2B0400-045F%2C%20U%2B0490-0491%2C%20U%2B04B0-04B1%2C%20U%2B2116%3B%0A%7D%0A%2F*%20greek-ext%20*%2F%0A%40font-face%20%7B%0A%20%20font-family%3A%20'Roboto%20Condensed'%3B%0A%20%20font-style%3A%20normal%3B%0A%20%20font-weight%3A%20700%3B%0A%20%20src%3A%20local('Roboto%20Condensed%20Bold')%2C%20local('RobotoCondensed-Bold')%2C%20url(https%3A%2F%2Ffonts.gstatic.com%2Fs%2Frobotocondensed%2Fv17%2FieVi2ZhZI2eCN5jzbjEETS9weq8-32meGCgYb8td.woff2)%20format('woff2')%3B%0A%20%20unicode-range%3A%20U%2B1F00-1FFF%3B%0A%7D%0A%2F*%20greek%20*%2F%0A%40font-face%20%7B%0A%20%20font-family%3A%20'Roboto%20Condensed'%3B%0A%20%20font-style%3A%20normal%3B%0A%20%20font-weight%3A%20700%3B%0A%20%20src%3A%20local('Roboto%20Condensed%20Bold')%2C%20local('RobotoCondensed-Bold')%2C%20url(https%3A%2F%2Ffonts.gstatic.com%2Fs%2Frobotocondensed%2Fv17%2FieVi2ZhZI2eCN5jzbjEETS9weq8-32meGCcYb8td.woff2)%20format('woff2')%3B%0A%20%20unicode-range%3A%20U%2B0370-03FF%3B%0A%7D%0A%2F*%20vietnamese%20*%2F%0A%40font-face%20%7B%0A%20%20font-family%3A%20'Roboto%20Condensed'%3B%0A%20%20font-style%3A%20normal%3B%0A%20%20font-weight%3A%20700%3B%0A%20%20src%3A%20local('Roboto%20Condensed%20Bold')%2C%20local('RobotoCondensed-Bold')%2C%20url(https%3A%2F%2Ffonts.gstatic.com%2Fs%2Frobotocondensed%2Fv17%2FieVi2ZhZI2eCN5jzbjEETS9weq8-32meGCsYb8td.woff2)%20format('woff2')%3B%0A%20%20unicode-range%3A%20U%2B0102-0103%2C%20U%2B0110-0111%2C%20U%2B1EA0-1EF9%2C%20U%2B20AB%3B%0A%7D%0A%2F*%20latin-ext%20*%2F%0A%40font-face%20%7B%0A%20%20font-family%3A%20'Roboto%20Condensed'%3B%0A%20%20font-style%3A%20normal%3B%0A%20%20font-weight%3A%20700%3B%0A%20%20src%3A%20local('Roboto%20Condensed%20Bold')%2C%20local('RobotoCondensed-Bold')%2C%20url(https%3A%2F%2Ffonts.gstatic.com%2Fs%2Frobotocondensed%2Fv17%2FieVi2ZhZI2eCN5jzbjEETS9weq8-32meGCoYb8td.woff2)%20format('woff2')%3B%0A%20%20unicode-range%3A%20U%2B0100-024F%2C%20U%2B0259%2C%20U%2B1E00-1EFF%2C%20U%2B2020%2C%20U%2B20A0-20AB%2C%20U%2B20AD-20CF%2C%20U%2B2113%2C%20U%2B2C60-2C7F%2C%20U%2BA720-A7FF%3B%0A%7D%0A%2F*%20latin%20*%2F%0A%40font-face%20%7B%0A%20%20font-family%3A%20'Roboto%20Condensed'%3B%0A%20%20font-style%3A%20normal%3B%0A%20%20font-weight%3A%20700%3B%0A%20%20src%3A%20local('Roboto%20Condensed%20Bold')%2C%20local('RobotoCondensed-Bold')%2C%20url(https%3A%2F%2Ffonts.gstatic.com%2Fs%2Frobotocondensed%2Fv17%2FieVi2ZhZI2eCN5jzbjEETS9weq8-32meGCQYbw.woff2)%20format('woff2')%3B%0A%20%20unicode-range%3A%20U%2B0000-00FF%2C%20U%2B0131%2C%20U%2B0152-0153%2C%20U%2B02BB-02BC%2C%20U%2B02C6%2C%20U%2B02DA%2C%20U%2B02DC%2C%20U%2B2000-206F%2C%20U%2B2074%2C%20U%2B20AC%2C%20U%2B2122%2C%20U%2B2191%2C%20U%2B2193%2C%20U%2B2212%2C%20U%2B2215%2C%20U%2BFEFF%2C%20U%2BFFFD%3B%0A%7D%0A"/><g id="many.end"><path d="M -5 0 L 0 7.5 L 5 0" fill="none"/></g><link rel="stylesheet" data-is-imported="true" media="" href="data:text/css,%2F*%20cyrillic-ext%20*%2F%0A%40font-face%20%7B%0A%20%20font-family%3A%20'Roboto%20Condensed'%3B%0A%20%20font-style%3A%20italic%3B%0A%20%20font-weight%3A%20400%3B%0A%20%20src%3A%20local('Roboto%20Condensed%20Italic')%2C%20local('RobotoCondensed-Italic')%2C%20url(https%3A%2F%2Ffonts.gstatic.com%2Fs%2Frobotocondensed%2Fv17%2FieVj2ZhZI2eCN5jzbjEETS9weq8-19eLAgM9UvI.woff2)%20format('woff2')%3B%0A%20%20unicode-range%3A%20U%2B0460-052F%2C%20U%2B1C80-1C88%2C%20U%2B20B4%2C%20U%2B2DE0-2DFF%2C%20U%2BA640-A69F%2C%20U%2BFE2E-FE2F%3B%0A%7D%0A%2F*%20cyrillic%20*%2F%0A%40font-face%20%7B%0A%20%20font-family%3A%20'Roboto%20Condensed'%3B%0A%20%20font-style%3A%20italic%3B%0A%20%20font-weight%3A%20400%3B%0A%20%20src%3A%20local('Roboto%20Condensed%20Italic')%2C%20local('RobotoCondensed-Italic')%2C%20url(https%3A%2F%2Ffonts.gstatic.com%2Fs%2Frobotocondensed%2Fv17%2FieVj2ZhZI2eCN5jzbjEETS9weq8-19eLCwM9UvI.woff2)%20format('woff2')%3B%0A%20%20unicode-range%3A%20U%2B0400-045F%2C%20U%2B0490-0491%2C%20U%2B04B0-04B1%2C%20U%2B2116%3B%0A%7D%0A%2F*%20greek-ext%20*%2F%0A%40font-face%20%7B%0A%20%20font-family%3A%20'Roboto%20Condensed'%3B%0A%20%20font-style%3A%20italic%3B%0A%20%20font-weight%3A%20400%3B%0A%20%20src%3A%20local('Roboto%20Condensed%20Italic')%2C%20local('RobotoCondensed-Italic')%2C%20url(https%3A%2F%2Ffonts.gstatic.com%2Fs%2Frobotocondensed%2Fv17%2FieVj2ZhZI2eCN5jzbjEETS9weq8-19eLAwM9UvI.woff2)%20format('woff2')%3B%0A%20%20unicode-range%3A%20U%2B1F00-1FFF%3B%0A%7D%0A%2F*%20greek%20*%2F%0A%40font-face%20%7B%0A%20%20font-family%3A%20'Roboto%20Condensed'%3B%0A%20%20font-style%3A%20italic%3B%0A%20%20font-weight%3A%20400%3B%0A%20%20src%3A%20local('Roboto%20Condensed%20Italic')%2C%20local('RobotoCondensed-Italic')%2C%20url(https%3A%2F%2Ffonts.gstatic.com%2Fs%2Frobotocondensed%2Fv17%2FieVj2ZhZI2eCN5jzbjEETS9weq8-19eLDAM9UvI.woff2)%20format('woff2')%3B%0A%20%20unicode-range%3A%20U%2B0370-03FF%3B%0A%7D%0A%2F*%20vietnamese%20*%2F%0A%40font-face%20%7B%0A%20%20font-family%3A%20'Roboto%20Condensed'%3B%0A%20%20font-style%3A%20italic%3B%0A%20%20font-weight%3A%20400%3B%0A%20%20src%3A%20local('Roboto%20Condensed%20Italic')%2C%20local('RobotoCondensed-Italic')%2C%20url(https%3A%2F%2Ffonts.gstatic.com%2Fs%2Frobotocondensed%2Fv17%2FieVj2ZhZI2eCN5jzbjEETS9weq8-19eLAAM9UvI.woff2)%20format('woff2')%3B%0A%20%20unicode-range%3A%20U%2B0102-0103%2C%20U%2B0110-0111%2C%20U%2B1EA0-1EF9%2C%20U%2B20AB%3B%0A%7D%0A%2F*%20latin-ext%20*%2F%0A%40font-face%20%7B%0A%20%20font-family%3A%20'Roboto%20Condensed'%3B%0A%20%20font-style%3A%20italic%3B%0A%20%20font-weight%3A%20400%3B%0A%20%20src%3A%20local('Roboto%20Condensed%20Italic')%2C%20local('RobotoCondensed-Italic')%2C%20url(https%3A%2F%2Ffonts.gstatic.com%2Fs%2Frobotocondensed%2Fv17%2FieVj2ZhZI2eCN5jzbjEETS9weq8-19eLAQM9UvI.woff2)%20format('woff2')%3B%0A%20%20unicode-range%3A%20U%2B0100-024F%2C%20U%2B0259%2C%20U%2B1E00-1EFF%2C%20U%2B2020%2C%20U%2B20A0-20AB%2C%20U%2B20AD-20CF%2C%20U%2B2113%2C%20U%2B2C60-2C7F%2C%20U%2BA720-A7FF%3B%0A%7D%0A%2F*%20latin%20*%2F%0A%40font-face%20%7B%0A%20%20font-family%3A%20'Roboto%20Condensed'%3B%0A%20%20font-style%3A%20italic%3B%0A%20%20font-weight%3A%20400%3B%0A%20%20src%3A%20local('Roboto%20Condensed%20Italic')%2C%20local('RobotoCondensed-Italic')%2C%20url(https%3A%2F%2Ffonts.gstatic.com%2Fs%2Frobotocondensed%2Fv17%2FieVj2ZhZI2eCN5jzbjEETS9weq8-19eLDwM9.woff2)%20format('woff2')%3B%0A%20%20unicode-range%3A%20U%2B0000-00FF%2C%20U%2B0131%2C%20U%2B0152-0153%2C%20U%2B02BB-02BC%2C%20U%2B02C6%2C%20U%2B02DA%2C%20U%2B02DC%2C%20U%2B2000-206F%2C%20U%2B2074%2C%20U%2B20AC%2C%20U%2B2122%2C%20U%2B2191%2C%20U%2B2193%2C%20U%2B2212%2C%20U%2B2215%2C%20U%2BFEFF%2C%20U%2BFFFD%3B%0A%7D%0A%2F*%20cyrillic-ext%20*%2F%0A%40font-face%20%7B%0A%20%20font-family%3A%20'Roboto%20Condensed'%3B%0A%20%20font-style%3A%20italic%3B%0A%20%20font-weight%3A%20700%3B%0A%20%20src%3A%20local('Roboto%20Condensed%20Bold%20Italic')%2C%20local('RobotoCondensed-BoldItalic')%2C%20url(https%3A%2F%2Ffonts.gstatic.com%2Fs%2Frobotocondensed%2Fv17%2FieVg2ZhZI2eCN5jzbjEETS9weq8-19eDtCYoYNNZQyQ.woff2)%20format('woff2')%3B%0A%20%20unicode-range%3A%20U%2B0460-052F%2C%20U%2B1C80-1C88%2C%20U%2B20B4%2C%20U%2B2DE0-2DFF%2C%20U%2BA640-A69F%2C%20U%2BFE2E-FE2F%3B%0A%7D%0A%2F*%20cyrillic%20*%2F%0A%40font-face%20%7B%0A%20%20font-family%3A%20'Roboto%20Condensed'%3B%0A%20%20font-style%3A%20italic%3B%0A%20%20font-weight%3A%20700%3B%0A%20%20src%3A%20local('Roboto%20Condensed%20Bold%20Italic')%2C%20local('RobotoCondensed-BoldItalic')%2C%20url(https%3A%2F%2Ffonts.gstatic.com%2Fs%2Frobotocondensed%2Fv17%2FieVg2ZhZI2eCN5jzbjEETS9weq8-19eDtCYoadNZQyQ.woff2)%20format('woff2')%3B%0A%20%20unicode-range%3A%20U%2B0400-045F%2C%20U%2B0490-0491%2C%20U%2B04B0-04B1%2C%20U%2B2116%3B%0A%7D%0A%2F*%20greek-ext%20*%2F%0A%40font-face%20%7B%0A%20%20font-family%3A%20'Roboto%20Condensed'%3B%0A%20%20font-style%3A%20italic%3B%0A%20%20font-weight%3A%20700%3B%0A%20%20src%3A%20local('Roboto%20Condensed%20Bold%20Italic')%2C%20local('RobotoCondensed-BoldItalic')%2C%20url(https%3A%2F%2Ffonts.gstatic.com%2Fs%2Frobotocondensed%2Fv17%2FieVg2ZhZI2eCN5jzbjEETS9weq8-19eDtCYoYdNZQyQ.woff2)%20format('woff2')%3B%0A%20%20unicode-range%3A%20U%2B1F00-1FFF%3B%0A%7D%0A%2F*%20greek%20*%2F%0A%40font-face%20%7B%0A%20%20font-family%3A%20'Roboto%20Condensed'%3B%0A%20%20font-style%3A%20italic%3B%0A%20%20font-weight%3A%20700%3B%0A%20%20src%3A%20local('Roboto%20Condensed%20Bold%20Italic')%2C%20local('RobotoCondensed-BoldItalic')%2C%20url(https%3A%2F%2Ffonts.gstatic.com%2Fs%2Frobotocondensed%2Fv17%2FieVg2ZhZI2eCN5jzbjEETS9weq8-19eDtCYobtNZQyQ.woff2)%20format('woff2')%3B%0A%20%20unicode-range%3A%20U%2B0370-03FF%3B%0A%7D%0A%2F*%20vietnamese%20*%2F%0A%40font-face%20%7B%0A%20%20font-family%3A%20'Roboto%20Condensed'%3B%0A%20%20font-style%3A%20italic%3B%0A%20%20font-weight%3A%20700%3B%0A%20%20src%3A%20local('Roboto%20Condensed%20Bold%20Italic')%2C%20local('RobotoCondensed-BoldItalic')%2C%20url(https%3A%2F%2Ffonts.gstatic.com%2Fs%2Frobotocondensed%2Fv17%2FieVg2ZhZI2eCN5jzbjEETS9weq8-19eDtCYoYtNZQyQ.woff2)%20format('woff2')%3B%0A%20%20unicode-range%3A%20U%2B0102-0103%2C%20U%2B0110-0111%2C%20U%2B1EA0-1EF9%2C%20U%2B20AB%3B%0A%7D%0A%2F*%20latin-ext%20*%2F%0A%40font-face%20%7B%0A%20%20font-family%3A%20'Roboto%20Condensed'%3B%0A%20%20font-style%3A%20italic%3B%0A%20%20font-weight%3A%20700%3B%0A%20%20src%3A%20local('Roboto%20Condensed%20Bold%20Italic')%2C%20local('RobotoCondensed-BoldItalic')%2C%20url(https%3A%2F%2Ffonts.gstatic.com%2Fs%2Frobotocondensed%2Fv17%2FieVg2ZhZI2eCN5jzbjEETS9weq8-19eDtCYoY9NZQyQ.woff2)%20format('woff2')%3B%0A%20%20unicode-range%3A%20U%2B0100-024F%2C%20U%2B0259%2C%20U%2B1E00-1EFF%2C%20U%2B2020%2C%20U%2B20A0-20AB%2C%20U%2B20AD-20CF%2C%20U%2B2113%2C%20U%2B2C60-2C7F%2C%20U%2BA720-A7FF%3B%0A%7D%0A%2F*%20latin%20*%2F%0A%40font-face%20%7B%0A%20%20font-family%3A%20'Roboto%20Condensed'%3B%0A%20%20font-style%3A%20italic%3B%0A%20%20font-weight%3A%20700%3B%0A%20%20src%3A%20local('Roboto%20Condensed%20Bold%20Italic')%2C%20local('RobotoCondensed-BoldItalic')%2C%20url(https%3A%2F%2Ffonts.gstatic.com%2Fs%2Frobotocondensed%2Fv17%2FieVg2ZhZI2eCN5jzbjEETS9weq8-19eDtCYobdNZ.woff2)%20format('woff2')%3B%0A%20%20unicode-range%3A%20U%2B0000-00FF%2C%20U%2B0131%2C%20U%2B0152-0153%2C%20U%2B02BB-02BC%2C%20U%2B02C6%2C%20U%2B02DA%2C%20U%2B02DC%2C%20U%2B2000-206F%2C%20U%2B2074%2C%20U%2B20AC%2C%20U%2B2122%2C%20U%2B2191%2C%20U%2B2193%2C%20U%2B2212%2C%20U%2B2215%2C%20U%2BFEFF%2C%20U%2BFFFD%3B%0A%7D%0A%2F*%20cyrillic-ext%20*%2F%0A%40font-face%20%7B%0A%20%20font-family%3A%20'Roboto%20Condensed'%3B%0A%20%20font-style%3A%20normal%3B%0A%20%20font-weight%3A%20400%3B%0A%20%20src%3A%20local('Roboto%20Condensed')%2C%20local('RobotoCondensed-Regular')%2C%20url(https%3A%2F%2Ffonts.gstatic.com%2Fs%2Frobotocondensed%2Fv17%2FieVl2ZhZI2eCN5jzbjEETS9weq8-19-7DRs5.woff2)%20format('woff2')%3B%0A%20%20unicode-range%3A%20U%2B0460-052F%2C%20U%2B1C80-1C88%2C%20U%2B20B4%2C%20U%2B2DE0-2DFF%2C%20U%2BA640-A69F%2C%20U%2BFE2E-FE2F%3B%0A%7D%0A%2F*%20cyrillic%20*%2F%0A%40font-face%20%7B%0A%20%20font-family%3A%20'Roboto%20Condensed'%3B%0A%20%20font-style%3A%20normal%3B%0A%20%20font-weight%3A%20400%3B%0A%20%20src%3A%20local('Roboto%20Condensed')%2C%20local('RobotoCondensed-Regular')%2C%20url(https%3A%2F%2Ffonts.gstatic.com%2Fs%2Frobotocondensed%2Fv17%2FieVl2ZhZI2eCN5jzbjEETS9weq8-19a7DRs5.woff2)%20format('woff2')%3B%0A%20%20unicode-range%3A%20U%2B0400-045F%2C%20U%2B0490-0491%2C%20U%2B04B0-04B1%2C%20U%2B2116%3B%0A%7D%0A%2F*%20greek-ext%20*%2F%0A%40font-face%20%7B%0A%20%20font-family%3A%20'Roboto%20Condensed'%3B%0A%20%20font-style%3A%20normal%3B%0A%20%20font-weight%3A%20400%3B%0A%20%20src%3A%20local('Roboto%20Condensed')%2C%20local('RobotoCondensed-Regular')%2C%20url(https%3A%2F%2Ffonts.gstatic.com%2Fs%2Frobotocondensed%2Fv17%2FieVl2ZhZI2eCN5jzbjEETS9weq8-1967DRs5.woff2)%20format('woff2')%3B%0A%20%20unicode-range%3A%20U%2B1F00-1FFF%3B%0A%7D%0A%2F*%20greek%20*%2F%0A%40font-face%20%7B%0A%20%20font-family%3A%20'Roboto%20Condensed'%3B%0A%20%20font-style%3A%20normal%3B%0A%20%20font-weight%3A%20400%3B%0A%20%20src%3A%20local('Roboto%20Condensed')%2C%20local('RobotoCondensed-Regular')%2C%20url(https%3A%2F%2Ffonts.gstatic.com%2Fs%2Frobotocondensed%2Fv17%2FieVl2ZhZI2eCN5jzbjEETS9weq8-19G7DRs5.woff2)%20format('woff2')%3B%0A%20%20unicode-range%3A%20U%2B0370-03FF%3B%0A%7D%0A%2F*%20vietnamese%20*%2F%0A%40font-face%20%7B%0A%20%20font-family%3A%20'Roboto%20Condensed'%3B%0A%20%20font-style%3A%20normal%3B%0A%20%20font-weight%3A%20400%3B%0A%20%20src%3A%20local('Roboto%20Condensed')%2C%20local('RobotoCondensed-Regular')%2C%20url(https%3A%2F%2Ffonts.gstatic.com%2Fs%2Frobotocondensed%2Fv17%2FieVl2ZhZI2eCN5jzbjEETS9weq8-1927DRs5.woff2)%20format('woff2')%3B%0A%20%20unicode-range%3A%20U%2B0102-0103%2C%20U%2B0110-0111%2C%20U%2B1EA0-1EF9%2C%20U%2B20AB%3B%0A%7D%0A%2F*%20latin-ext%20*%2F%0A%40font-face%20%7B%0A%20%20font-family%3A%20'Roboto%20Condensed'%3B%0A%20%20font-style%3A%20normal%3B%0A%20%20font-weight%3A%20400%3B%0A%20%20src%3A%20local('Roboto%20Condensed')%2C%20local('RobotoCondensed-Regular')%2C%20url(https%3A%2F%2Ffonts.gstatic.com%2Fs%2Frobotocondensed%2Fv17%2FieVl2ZhZI2eCN5jzbjEETS9weq8-19y7DRs5.woff2)%20format('woff2')%3B%0A%20%20unicode-range%3A%20U%2B0100-024F%2C%20U%2B0259%2C%20U%2B1E00-1EFF%2C%20U%2B2020%2C%20U%2B20A0-20AB%2C%20U%2B20AD-20CF%2C%20U%2B2113%2C%20U%2B2C60-2C7F%2C%20U%2BA720-A7FF%3B%0A%7D%0A%2F*%20latin%20*%2F%0A%40font-face%20%7B%0A%20%20font-family%3A%20'Roboto%20Condensed'%3B%0A%20%20font-style%3A%20normal%3B%0A%20%20font-weight%3A%20400%3B%0A%20%20src%3A%20local('Roboto%20Condensed')%2C%20local('RobotoCondensed-Regular')%2C%20url(https%3A%2F%2Ffonts.gstatic.com%2Fs%2Frobotocondensed%2Fv17%2FieVl2ZhZI2eCN5jzbjEETS9weq8-19K7DQ.woff2)%20format('woff2')%3B%0A%20%20unicode-range%3A%20U%2B0000-00FF%2C%20U%2B0131%2C%20U%2B0152-0153%2C%20U%2B02BB-02BC%2C%20U%2B02C6%2C%20U%2B02DA%2C%20U%2B02DC%2C%20U%2B2000-206F%2C%20U%2B2074%2C%20U%2B20AC%2C%20U%2B2122%2C%20U%2B2191%2C%20U%2B2193%2C%20U%2B2212%2C%20U%2B2215%2C%20U%2BFEFF%2C%20U%2BFFFD%3B%0A%7D%0A%2F*%20cyrillic-ext%20*%2F%0A%40font-face%20%7B%0A%20%20font-family%3A%20'Roboto%20Condensed'%3B%0A%20%20font-style%3A%20normal%3B%0A%20%20font-weight%3A%20700%3B%0A%20%20src%3A%20local('Roboto%20Condensed%20Bold')%2C%20local('RobotoCondensed-Bold')%2C%20url(https%3A%2F%2Ffonts.gstatic.com%2Fs%2Frobotocondensed%2Fv17%2FieVi2ZhZI2eCN5jzbjEETS9weq8-32meGCkYb8td.woff2)%20format('woff2')%3B%0A%20%20unicode-range%3A%20U%2B0460-052F%2C%20U%2B1C80-1C88%2C%20U%2B20B4%2C%20U%2B2DE0-2DFF%2C%20U%2BA640-A69F%2C%20U%2BFE2E-FE2F%3B%0A%7D%0A%2F*%20cyrillic%20*%2F%0A%40font-face%20%7B%0A%20%20font-family%3A%20'Roboto%20Condensed'%3B%0A%20%20font-style%3A%20normal%3B%0A%20%20font-weight%3A%20700%3B%0A%20%20src%3A%20local('Roboto%20Condensed%20Bold')%2C%20local('RobotoCondensed-Bold')%2C%20url(https%3A%2F%2Ffonts.gstatic.com%2Fs%2Frobotocondensed%2Fv17%2FieVi2ZhZI2eCN5jzbjEETS9weq8-32meGCAYb8td.woff2)%20format('woff2')%3B%0A%20%20unicode-range%3A%20U%2B0400-045F%2C%20U%2B0490-0491%2C%20U%2B04B0-04B1%2C%20U%2B2116%3B%0A%7D%0A%2F*%20greek-ext%20*%2F%0A%40font-face%20%7B%0A%20%20font-family%3A%20'Roboto%20Condensed'%3B%0A%20%20font-style%3A%20normal%3B%0A%20%20font-weight%3A%20700%3B%0A%20%20src%3A%20local('Roboto%20Condensed%20Bold')%2C%20local('RobotoCondensed-Bold')%2C%20url(https%3A%2F%2Ffonts.gstatic.com%2Fs%2Frobotocondensed%2Fv17%2FieVi2ZhZI2eCN5jzbjEETS9weq8-32meGCgYb8td.woff2)%20format('woff2')%3B%0A%20%20unicode-range%3A%20U%2B1F00-1FFF%3B%0A%7D%0A%2F*%20greek%20*%2F%0A%40font-face%20%7B%0A%20%20font-family%3A%20'Roboto%20Condensed'%3B%0A%20%20font-style%3A%20normal%3B%0A%20%20font-weight%3A%20700%3B%0A%20%20src%3A%20local('Roboto%20Condensed%20Bold')%2C%20local('RobotoCondensed-Bold')%2C%20url(https%3A%2F%2Ffonts.gstatic.com%2Fs%2Frobotocondensed%2Fv17%2FieVi2ZhZI2eCN5jzbjEETS9weq8-32meGCcYb8td.woff2)%20format('woff2')%3B%0A%20%20unicode-range%3A%20U%2B0370-03FF%3B%0A%7D%0A%2F*%20vietnamese%20*%2F%0A%40font-face%20%7B%0A%20%20font-family%3A%20'Roboto%20Condensed'%3B%0A%20%20font-style%3A%20normal%3B%0A%20%20font-weight%3A%20700%3B%0A%20%20src%3A%20local('Roboto%20Condensed%20Bold')%2C%20local('RobotoCondensed-Bold')%2C%20url(https%3A%2F%2Ffonts.gstatic.com%2Fs%2Frobotocondensed%2Fv17%2FieVi2ZhZI2eCN5jzbjEETS9weq8-32meGCsYb8td.woff2)%20format('woff2')%3B%0A%20%20unicode-range%3A%20U%2B0102-0103%2C%20U%2B0110-0111%2C%20U%2B1EA0-1EF9%2C%20U%2B20AB%3B%0A%7D%0A%2F*%20latin-ext%20*%2F%0A%40font-face%20%7B%0A%20%20font-family%3A%20'Roboto%20Condensed'%3B%0A%20%20font-style%3A%20normal%3B%0A%20%20font-weight%3A%20700%3B%0A%20%20src%3A%20local('Roboto%20Condensed%20Bold')%2C%20local('RobotoCondensed-Bold')%2C%20url(https%3A%2F%2Ffonts.gstatic.com%2Fs%2Frobotocondensed%2Fv17%2FieVi2ZhZI2eCN5jzbjEETS9weq8-32meGCoYb8td.woff2)%20format('woff2')%3B%0A%20%20unicode-range%3A%20U%2B0100-024F%2C%20U%2B0259%2C%20U%2B1E00-1EFF%2C%20U%2B2020%2C%20U%2B20A0-20AB%2C%20U%2B20AD-20CF%2C%20U%2B2113%2C%20U%2B2C60-2C7F%2C%20U%2BA720-A7FF%3B%0A%7D%0A%2F*%20latin%20*%2F%0A%40font-face%20%7B%0A%20%20font-family%3A%20'Roboto%20Condensed'%3B%0A%20%20font-style%3A%20normal%3B%0A%20%20font-weight%3A%20700%3B%0A%20%20src%3A%20local('Roboto%20Condensed%20Bold')%2C%20local('RobotoCondensed-Bold')%2C%20url(https%3A%2F%2Ffonts.gstatic.com%2Fs%2Frobotocondensed%2Fv17%2FieVi2ZhZI2eCN5jzbjEETS9weq8-32meGCQYbw.woff2)%20format('woff2')%3B%0A%20%20unicode-range%3A%20U%2B0000-00FF%2C%20U%2B0131%2C%20U%2B0152-0153%2C%20U%2B02BB-02BC%2C%20U%2B02C6%2C%20U%2B02DA%2C%20U%2B02DC%2C%20U%2B2000-206F%2C%20U%2B2074%2C%20U%2B20AC%2C%20U%2B2122%2C%20U%2B2191%2C%20U%2B2193%2C%20U%2B2212%2C%20U%2B2215%2C%20U%2BFEFF%2C%20U%2BFFFD%3B%0A%7D%0A"/><linearGradient id="L1663159190f6992331f79a2383e97826.grad" x1="16.53%" x2="159.43%" y1="63.66%" y2="19.97%"><stop offset="0%" stop-color="#f69923"/><stop offset="31.2%" stop-color="#f79a23"/><stop offset="83.8%" stop-color="#e97826"/></linearGradient><linearGradient id="L-2173947413329e206463c9203775cd2335100e97826.grad" x1="-217.87%" x2="74.74%" y1="394.56%" y2="13.77%"><stop offset="32.300000000000004%" stop-color="#9e2064"/><stop offset="63%" stop-color="#c92037"/><stop offset="75.1%" stop-color="#cd2335"/><stop offset="100%" stop-color="#e97826"/></linearGradient><linearGradient id="L-20192125-13602826629662e8d789f206494cd2032.grad" x1="-20.65%" x2="125.39%" y1="192.52%" y2="-136.45%"><stop offset="0%" stop-color="#282662"/><stop offset="9.5%" stop-color="#662e8d"/><stop offset="78.8%" stop-color="#9f2064"/><stop offset="94.89999999999999%" stop-color="#cd2032"/></linearGradient><linearGradient id="L-80170146-44329e206463c9203775cd2335100e97826.grad" x1="-80.15%" x2="146.35%" y1="170.50%" y2="-44.37%"><stop offset="32.300000000000004%" stop-color="#9e2064"/><stop offset="63%" stop-color="#c92037"/><stop offset="75.1%" stop-color="#cd2335"/><stop offset="100%" stop-color="#e97826"/></linearGradient><linearGradient id="L-1877164-4102826629662e8d789f206494cd2032.grad" x1="-18.39%" x2="164.85%" y1="77.35%" y2="-41.39%"><stop offset="0%" stop-color="#282662"/><stop offset="9.5%" stop-color="#662e8d"/><stop offset="78.8%" stop-color="#9f2064"/><stop offset="94.89999999999999%" stop-color="#cd2032"/></linearGradient><linearGradient id="L-34187110-51329e206463c9203775cd2335100e97826.grad" x1="-34.80%" x2="110.72%" y1="187.72%" y2="-51.14%"><stop offset="32.300000000000004%" stop-color="#9e2064"/><stop offset="63%" stop-color="#c92037"/><stop offset="75.1%" stop-color="#cd2335"/><stop offset="100%" stop-color="#e97826"/></linearGradient><linearGradient id="L-1294656617329e206463c9203775cd2335100e97826.grad" x1="-129.85%" x2="66.47%" y1="465.60%" y2="17.18%"><stop offset="32.300000000000004%" stop-color="#9e2064"/><stop offset="63%" stop-color="#c92037"/><stop offset="75.1%" stop-color="#cd2335"/><stop offset="100%" stop-color="#e97826"/></linearGradient><linearGradient id="L-4555633512861-38585329e206463c9203775cd2335100e97826.grad" x1="-4555.03%" x2="2861.74%" y1="63351.56%" y2="-38585.57%"><stop offset="32.300000000000004%" stop-color="#9e2064"/><stop offset="63%" stop-color="#c92037"/><stop offset="75.1%" stop-color="#cd2335"/><stop offset="100%" stop-color="#e97826"/></linearGradient><linearGradient id="L-158502126557788-103357329e206463c9203775cd2335100e97826.grad" x1="-15850.25%" x2="7788.22%" y1="212655.32%" y2="-103357.54%"><stop offset="32.300000000000004%" stop-color="#9e2064"/><stop offset="63%" stop-color="#c92037"/><stop offset="75.1%" stop-color="#cd2335"/><stop offset="100%" stop-color="#e97826"/></linearGradient></defs><title xmlns="http://www.w3.org/1999/xhtml">Link Editable</title><desc xmlns="http://www.w3.org/1999/xhtml"></desc><svg height="420.0000423908265" id="kkaq09rxrj" overflow="visible" v:setup="{&quot;paper&quot;:&quot;CUSTOM&quot;,&quot;unit&quot;:&quot;m&quot;,&quot;scale&quot;:{&quot;from&quot;:&quot;1&quot;,&quot;to&quot;:&quot;1&quot;},&quot;width&quot;:&quot;297mm&quot;,&quot;height&quot;:&quot;210mm&quot;}" viewBox="0 0 1122.5197162628174 793.7008094787598" width="594.0000599527403"><g id="klrf3vtghx" class="Group.cls NoPrint.cls" v:unit="{&quot;size.width&quot;:&quot;m&quot;,&quot;size.height&quot;:&quot;m&quot;}" transform="translate(-0.0001626358105681902 0.09982940139458663)" v:abox="{&quot;x&quot;:-0.0001626358105681902,&quot;y&quot;:0.09982940139458663,&quot;width&quot;:256.00032527162114,&quot;height&quot;:103.80034119721083}"><g class="Prim.cls"><g id="klrf3vrfgt" transform="translate(62.02199870347977 17.25235039826064)" class="NoPrint.cls"><path d="M 193.15597915649414 13.197999954223633 C 193.6922492980957 13.716991424560547 193.98984146118164 14.434803009033203 193.97798538208008 15.180997848510742 C 193.9862403869629 15.931497573852539 193.68962478637695 16.653226852416992 193.15597915649414 17.180997848510742 C 192.6059913635254 17.74799919128418 191.94197463989258 18.01099967956543 191.15898513793945 18.01099967956543 C 190.37598037719727 18.01099967956543 189.71496963500977 17.738000869750977 189.15898513793945 17.189001083374023 C 188.62726211547852 16.66745948791504 188.33269119262695 15.950704574584961 188.34396743774414 15.205999374389648 C 188.33571243286133 14.455501556396484 188.63232803344727 13.733772277832031 189.16597366333008 13.205999374389648 C 189.71599197387695 12.638999938964844 190.36598587036133 12.375999450683594 191.16597366333008 12.375999450683594 C 191.91450881958008 12.363687515258789 192.63478469848633 12.66157341003418 193.15597915649414 13.198999404907227 Z M 192.9189796447754 16.937997817993164 C 193.38486099243164 16.475584030151367 193.64384841918945 15.844366073608398 193.63698196411133 15.187997817993164 C 193.64694595336914 14.53476333618164 193.39018630981445 13.905691146850586 192.92596817016602 13.445999145507812 C 192.46991348266602 12.972696304321289 191.83713150024414 12.711029052734375 191.17998123168945 12.7239990234375 C 190.5203742980957 12.708463668823242 189.8848762512207 12.972108840942383 189.42998123168945 13.44999885559082 C 188.96127700805664 13.910280227661133 188.70268630981445 14.543191909790039 188.71498489379883 15.19999885559082 C 188.71498489379883 15.882997512817383 188.95198440551758 16.463998794555664 189.42299270629883 16.946001052856445 C 189.87668228149414 17.42033576965332 190.50874710083008 17.68230628967285 191.16498184204102 17.667997360229492 C 191.8649787902832 17.667997360229492 192.43500137329102 17.42399787902832 192.91798782348633 16.937997817993164 Z M 192.52400588989258 14.645999908447266 C 192.52400588989258 15.14900016784668 192.3039894104004 15.465997695922852 191.86398696899414 15.593999862670898 L 192.6719856262207 16.689001083374023 L 192.01796340942383 16.689001083374023 L 191.28798294067383 15.672998428344727 L 190.6199836730957 15.672998428344727 L 190.6199836730957 16.689001083374023 L 190.09198379516602 16.689001083374023 L 190.09198379516602 13.647998809814453 L 191.23396682739258 13.647998809814453 C 191.69398880004883 13.647998809814453 192.03398513793945 13.727998733520508 192.23398208618164 13.884998321533203 C 192.43396377563477 14.041999816894531 192.5319709777832 14.28499984741211 192.5319709777832 14.642999649047852 Z M 191.84399795532227 15.072999954223633 C 191.95196914672852 14.986997604370117 192.0019874572754 14.839998245239258 192.0019874572754 14.642999649047852 C 192.0019874572754 14.445999145507812 191.94800186157227 14.304998397827148 191.83998489379883 14.22599983215332 C 191.73198318481445 14.14699935913086 191.53798294067383 14.111000061035156 191.26497268676758 14.111000061035156 L 190.61796951293945 14.111000061035156 L 190.61796951293945 15.205999374389648 L 191.24798965454102 15.205999374389648 C 191.54797744750977 15.205999374389648 191.73996353149414 15.158998489379883 191.84399795532227 15.072999954223633 Z M 2.7579917907714844 0.6999988555908203 L 2.7579917907714844 6.279998779296875 L 2.0399818420410156 6.279998779296875 L 2.0399818420410156 0.6999988555908203 L 0 0.6999988555908203 L 0 0 L 4.799991607666016 0 L 4.799991607666016 0.6999988555908203 L 2.750011444091797 0.6999988555908203 Z M 12.76400375366211 6.279998779296875 L 12.76400375366211 3.5179996490478516 L 8.986011505126953 3.5179996490478516 L 8.986011505126953 6.279998779296875 L 8.278003692626953 6.279998779296875 L 8.278003692626953 0.0049991607666015625 L 8.99600601196289 0.0049991607666015625 L 8.99600601196289 2.838998794555664 L 12.773998260498047 2.838998794555664 L 12.773998260498047 0.0049991607666015625 L 13.492008209228516 0.0049991607666015625 L 13.492008209228516 6.279998779296875 L 12.773998260498047 6.279998779296875 Z M 18.481990814208984 0.6999988555908203 L 18.481990814208984 2.7619991302490234 L 21.645984649658203 2.7619991302490234 L 21.645984649658203 3.4619998931884766 L 18.481990814208984 3.4619998931884766 L 18.481990814208984 5.60999870300293 L 22.138011932373047 5.60999870300293 L 22.138011932373047 6.291999816894531 L 17.762989044189453 6.291999816894531 L 17.762989044189453 0.018001556396484375 L 22.022991180419922 0.018001556396484375 L 22.022991180419922 0.7180004119873047 L 18.482982635498047 0.7180004119873047 Z" stroke="none" stroke-linejoin="miter" stroke-linecap="butt" fill="#ffffff" fill-rule="nonzero" stroke-width="1.000000596046803" fill-opacity="1"/></g><g id="klrf3vrkgu" transform="translate(56.54998332262039 30.497349330145404)" class="NoPrint.cls"><path d="M 0 36.03499412536621 L 14.988018035888672 0.2049999237060547 L 17.865001678466797 0.2049999237060547 L 32.85299301147461 36.03499412536621 L 29.067020416259766 36.03499412536621 L 24.424022674560547 24.8330020904541 L 8.32602310180664 24.8330020904541 L 3.7320175170898438 36.03499412536621 Z M 16.454021453857422 4.343000411987305 L 9.087024688720703 22.0570011138916 L 23.622013092041016 22.0570011138916 L 16.45199966430664 4.343000411987305 Z M 36.72201156616211 36.03499412536621 L 36.72201156616211 0.2049999237060547 L 51.55900192260742 0.2049999237060547 C 57.71500015258789 0.2049999237060547 62.159000396728516 5.908998489379883 62.159000396728516 11.458002090454102 C 62.159000396728516 17.31199836730957 58.0210075378418 22.81099510192871 51.86500930786133 22.81099510192871 L 40.20499038696289 22.81099510192871 L 40.20499038696289 36.030996322631836 L 36.71999740600586 36.030996322631836 Z M 40.20601272583008 19.6820011138916 L 51.64999771118164 19.6820011138916 C 55.88801193237305 19.6820011138916 58.61399459838867 15.795999526977539 58.61399459838867 11.456998825073242 C 58.61399459838867 6.963998794555664 55.28400802612305 3.3330020904541016 51.348026275634766 3.3330020904541016 L 40.20601272583008 3.3330020904541016 L 40.20601272583008 19.683000564575195 Z M 60.20600509643555 36.03499412536621 L 75.19401931762695 0.2049999237060547 L 78.07100296020508 0.2049999237060547 L 93.05899429321289 36.03499412536621 L 89.27299880981445 36.03499412536621 L 84.61999893188477 24.8330020904541 L 68.52199935913086 24.8330020904541 L 63.9279899597168 36.03499412536621 L 60.19600296020508 36.03499412536621 Z M 76.64999771118164 4.343000411987305 L 69.28300094604492 22.0570011138916 L 83.8179817199707 22.0570011138916 Z M 110.00700759887695 0 C 116.36401748657227 0 121.00700759887695 3.230001449584961 123.22699356079102 7.822999954223633 L 120.39999771118164 9.539999008178711 C 118.1299934387207 4.795000076293945 113.68698501586914 3.1830005645751953 109.79999160766602 3.1830005645751953 C 101.22002029418945 3.1830005645751953 96.52998733520508 10.855001449584961 96.52998733520508 18.071001052856445 C 96.52998733520508 25.994001388549805 102.33400344848633 33.17099571228027 109.95198440551758 33.17099571228027 C 113.98898696899414 33.17099571228027 118.7339973449707 31.15300178527832 121.00400161743164 26.507997512817383 L 123.93098831176758 28.019994735717773 C 121.61098098754883 33.367998123168945 115.25099563598633 36.345998764038086 109.75101089477539 36.345998764038086 C 99.91101455688477 36.345998764038086 92.99600601196289 26.961000442504883 92.99600601196289 17.878000259399414 C 93.00001907348633 9.251001358032227 99.19598770141602 0.01300048828125 109.99600601196289 0.01300048828125 Z M 157.12201309204102 0.2049999237060547 L 157.12201309204102 36.03499412536621 L 153.58798599243164 36.03499412536621 L 153.58798599243164 19.280000686645508 L 132.34302139282227 19.280000686645508 L 132.34302139282227 36.03499412536621 L 128.86299514770508 36.03499412536621 L 128.86299514770508 0.2049999237060547 L 132.34302139282227 0.2049999237060547 L 132.34302139282227 16.15300178527832 L 153.58798599243164 16.15300178527832 L 153.58798599243164 0.2049999237060547 Z M 189.2859992980957 32.902997970581055 L 189.2859992980957 36.030996322631836 L 165.21600723266602 36.030996322631836 L 165.21600723266602 0.2049999237060547 L 188.83600234985352 0.2049999237060547 L 188.83600234985352 3.3330020904541016 L 168.70000076293945 3.3330020904541016 L 168.70000076293945 16.253000259399414 L 186.26300430297852 16.253000259399414 L 186.26300430297852 19.229997634887695 L 168.70000076293945 19.229997634887695 L 168.70000076293945 32.90699577331543 L 189.2870216369629 32.90699577331543 Z" stroke="none" stroke-linejoin="miter" stroke-linecap="butt" fill="#ffffff" fill-rule="nonzero" stroke-width="1.000000596046803" fill-opacity="1"/></g><g id="klrf3vrmgv" transform="translate(55.55800944566727 73.91734559174208)" class="NoPrint.cls"><path d="M 4.336986541748047 0.20099639892578125 C 4.760997772216797 0.32700347900390625 5.133998870849609 0.49900054931640625 5.449974060058594 0.7009963989257812 L 5.079982757568359 1.51300048828125 C 4.756992340087891 1.2979965209960938 4.411991119384766 1.1389999389648438 4.041999816894531 1.0329971313476562 C 3.671977996826172 0.927001953125 3.3239974975585938 0.875 2.9919700622558594 0.875 C 2.503978729248047 0.875 2.1119766235351562 0.96099853515625 1.8219871520996094 1.1370010375976562 C 1.5319976806640625 1.3130035400390625 1.3839759826660156 1.5609970092773438 1.3839759826660156 1.8799972534179688 C 1.3839759826660156 2.1529998779296875 1.4669876098632812 2.3830032348632812 1.6279869079589844 2.5619964599609375 C 1.7968673706054688 2.7464141845703125 2.005443572998047 2.8900299072265625 2.237987518310547 2.9820022583007812 C 2.4819984436035156 3.082000732421875 2.81597900390625 3.1969985961914062 3.2439918518066406 3.3270034790039062 L 4.4899749755859375 3.7900009155273438 C 4.8073272705078125 3.9340286254882812 5.084690093994141 4.153388977050781 5.297977447509766 4.4290008544921875 C 5.520973205566406 4.7089996337890625 5.631988525390625 5.083000183105469 5.631988525390625 5.541999816894531 C 5.631988525390625 5.961997985839844 5.516998291015625 6.3249969482421875 5.291988372802734 6.641998291015625 C 5.066974639892578 6.9589996337890625 4.741996765136719 7.198997497558594 4.328975677490234 7.372001647949219 C 3.9159889221191406 7.5449981689453125 3.4349822998046875 7.6320037841796875 2.8919754028320312 7.6320037841796875 C 2.3509559631347656 7.632293701171875 1.8151283264160156 7.5262908935546875 1.3149948120117188 7.319999694824219 C 0.8307838439941406 7.1192626953125 0.38568878173828125 6.834930419921875 0 6.480003356933594 L 0.3839912414550781 5.704002380371094 C 0.727935791015625 6.041297912597656 1.1341323852539062 6.3085784912109375 1.5799942016601562 6.490997314453125 C 2.0329971313476562 6.678001403808594 2.47998046875 6.771003723144531 2.9019737243652344 6.771003723144531 C 3.4519920349121094 6.771003723144531 3.8819961547851562 6.663002014160156 4.198993682861328 6.450996398925781 C 4.5159912109375 6.2389984130859375 4.672985076904297 5.950996398925781 4.672985076904297 5.5930023193359375 C 4.672985076904297 5.3130035400390625 4.589969635009766 5.079002380371094 4.424999237060547 4.896003723144531 C 4.259998321533203 4.7129974365234375 4.0549774169921875 4.572998046875 3.8109970092773438 4.469001770019531 C 3.4811477661132812 4.338531494140625 3.1454734802246094 4.223411560058594 2.8049888610839844 4.124000549316406 C 2.382099151611328 4.003509521484375 1.9669952392578125 3.85723876953125 1.5619850158691406 3.6859970092773438 C 1.2439956665039062 3.5476837158203125 0.9660835266113281 3.331329345703125 0.7539825439453125 3.0569992065429688 C 0.5340003967285156 2.779998779296875 0.4239768981933594 2.41400146484375 0.4239768981933594 1.957000732421875 C 0.41683197021484375 1.5886077880859375 0.5302505493164062 1.22796630859375 0.7469978332519531 0.9300003051757812 C 0.9629783630371094 0.6360015869140625 1.2709732055664062 0.40599822998046875 1.6669807434082031 0.2440032958984375 C 2.06298828125 0.082000732421875 2.521984100341797 0 3.0389747619628906 0 C 3.480987548828125 0 3.9089736938476562 0.06800079345703125 4.335994720458984 0.194000244140625 Z M 15.56197738647461 0.5329971313476562 C 16.164989471435547 0.871002197265625 16.646991729736328 1.3330001831054688 16.998981475830078 1.9130020141601562 C 17.35134506225586 2.4889068603515625 17.53561019897461 3.1518707275390625 17.530994415283203 3.8270034790039062 C 17.53714370727539 4.505790710449219 17.352825164794922 5.172698974609375 16.998981475830078 5.7519989013671875 C 16.64798355102539 6.33056640625 16.152851104736328 6.808135986328125 15.56197738647461 7.13800048828125 C 14.957324981689453 7.4798583984375 14.273571014404297 7.6570892333984375 13.578990936279297 7.652000427246094 C 12.87832260131836 7.6602630615234375 12.187931060791016 7.4829254150390625 11.577999114990234 7.13800048828125 C 10.974987030029297 6.797996520996094 10.492984771728516 6.333000183105469 10.140995025634766 5.7519989013671875 C 9.788982391357422 5.170997619628906 9.60898208618164 4.527000427246094 9.60898208618164 3.8270034790039062 C 9.60232162475586 3.1490859985351562 9.78670883178711 2.483001708984375 10.140995025634766 1.904998779296875 C 10.489269256591797 1.3268508911132812 10.985271453857422 0.8519058227539062 11.577999114990234 0.5289993286132812 C 12.18197250366211 0.19499969482421875 12.847980499267578 0.0260009765625 13.577999114990234 0.0260009765625 C 14.292987823486328 0.0260009765625 14.953998565673828 0.19100189208984375 15.560985565185547 0.5329971313476562 Z M 12.034976959228516 1.2480010986328125 C 11.572872161865234 1.5061187744140625 11.184520721435547 1.8782730102539062 10.906993865966797 2.3290023803710938 C 10.626972198486328 2.7819976806640625 10.482990264892578 3.2809982299804688 10.482990264892578 3.8270034790039062 C 10.482990264892578 4.3730010986328125 10.622997283935547 4.878997802734375 10.906993865966797 5.334999084472656 C 11.471790313720703 6.266563415527344 12.48666763305664 6.830467224121094 13.575977325439453 6.818000793457031 C 14.132984161376953 6.818000793457031 14.642986297607422 6.68499755859375 15.109996795654297 6.417999267578125 C 15.56991958618164 6.159080505371094 15.954814910888672 5.785224914550781 16.226985931396484 5.333000183105469 C 16.503971099853516 4.8769989013671875 16.643978118896484 4.3730010986328125 16.643978118896484 3.8249969482421875 C 16.648693084716797 3.295440673828125 16.504161834716797 2.7752532958984375 16.226985931396484 2.3239974975585938 C 15.953495025634766 1.8746261596679688 15.568798065185547 1.5033493041992188 15.109996795654297 1.246002197265625 C 14.644397735595703 0.9793319702148438 14.116519927978516 0.8406295776367188 13.57998275756836 0.8440017700195312 C 13.038898468017578 0.8395843505859375 12.506244659423828 0.978271484375 12.035999298095703 1.246002197265625 Z M 22.974979400634766 0.8759994506835938 L 22.974979400634766 3.53399658203125 L 26.508991241455078 3.53399658203125 L 26.508991241455078 4.366996765136719 L 22.974979400634766 4.366996765136719 L 22.974979400634766 7.607002258300781 L 22.10898208618164 7.607002258300781 L 22.10898208618164 0.042999267578125 L 26.914997100830078 0.042999267578125 L 26.914997100830078 0.8759994506835938 Z M 33.94297409057617 0.8759994506835938 L 33.94297409057617 7.6060028076171875 L 33.07698440551758 7.6060028076171875 L 33.07698440551758 0.8759994506835938 L 30.619976043701172 0.8759994506835938 L 30.619976043701172 0.042999267578125 L 36.41696548461914 0.042999267578125 L 36.41696548461914 0.8759994506835938 L 33.94198226928711 0.8759994506835938 Z M 47.5880012512207 7.6060028076171875 L 45.5479850769043 1.2340011596679688 L 43.47797775268555 7.6060028076171875 L 42.59798812866211 7.6060028076171875 L 40.065975189208984 0.04199981689453125 L 40.9959831237793 0.04199981689453125 L 43.075984954833984 6.60400390625 L 45.12599563598633 0.0540008544921875 L 45.99198532104492 0.04399871826171875 L 48.06398391723633 6.6060028076171875 L 50.11399459838867 0.04399871826171875 L 51.01199722290039 0.04399871826171875 L 48.47597885131836 7.608001708984375 L 47.575984954833984 7.608001708984375 Z M 55.327999114990234 5.706001281738281 L 54.48398208618164 7.6060028076171875 L 53.563968658447266 7.6060028076171875 L 56.963993072509766 0.04199981689453125 L 57.86196517944336 0.04199981689453125 L 61.242000579833984 7.6060028076171875 L 60.30497360229492 7.6060028076171875 L 59.46098709106445 5.706001281738281 L 55.33799362182617 5.706001281738281 Z M 57.38198471069336 1.0360031127929688 L 55.6979866027832 4.872001647949219 L 59.09798049926758 4.872001647949219 L 57.3919792175293 1.0360031127929688 Z M 68.74198532104492 5.206001281738281 L 68.23598861694336 5.227996826171875 L 66.23598861694336 5.227996826171875 L 66.23598861694336 7.627998352050781 L 65.37396621704102 7.627998352050781 L 65.37396621704102 0.042999267578125 L 68.24697494506836 0.042999267578125 C 69.18697738647461 0.042999267578125 69.92097091674805 0.26599884033203125 70.44498062133789 0.707000732421875 C 70.9689826965332 1.1480026245117188 71.22799301147461 1.7770004272460938 71.22799301147461 2.5869979858398438 C 71.22799301147461 3.2050018310546875 71.08098983764648 3.7269973754882812 70.78998184204102 4.141998291015625 C 70.49896621704102 4.556999206542969 70.0899772644043 4.8600006103515625 69.53297805786133 5.040000915527344 L 71.29998397827148 7.608001708984375 L 70.31999588012695 7.608001708984375 L 68.75397109985352 5.208000183105469 Z M 69.82696914672852 3.9459991455078125 C 70.19699478149414 3.6439971923828125 70.38397598266602 3.1989974975585938 70.38397598266602 2.615997314453125 C 70.38397598266602 2.0459976196289062 70.19699478149414 1.6139984130859375 69.82696914672852 1.322998046875 C 69.45697402954102 1.0319976806640625 68.92499160766602 0.8850021362304688 68.22698593139648 0.8850021362304688 L 66.22698593139648 0.8850021362304688 L 66.22698593139648 4.398002624511719 L 68.22698593139648 4.398002624511719 C 68.92698287963867 4.398002624511719 69.44697952270508 4.2480010986328125 69.82696914672852 3.9449996948242188 Z M 76.90396499633789 0.8860015869140625 L 76.90396499633789 3.371002197265625 L 80.71797561645508 3.371002197265625 L 80.71797561645508 4.204002380371094 L 76.90396499633789 4.204002380371094 L 76.90396499633789 6.8040008544921875 L 81.30397415161133 6.8040008544921875 L 81.30397415161133 7.6269989013671875 L 76.02797317504883 7.6269989013671875 L 76.02797317504883 0.042999267578125 L 81.15999221801758 0.042999267578125 L 81.15999221801758 0.8759994506835938 L 76.89297866821289 0.8759994506835938 Z M 93.38896560668945 0.8759994506835938 L 93.38896560668945 3.53399658203125 L 96.92299270629883 3.53399658203125 L 96.92299270629883 4.366996765136719 L 93.38896560668945 4.366996765136719 L 93.38896560668945 7.607002258300781 L 92.52298355102539 7.607002258300781 L 92.52298355102539 0.042999267578125 L 97.32895278930664 0.042999267578125 L 97.32895278930664 0.8759994506835938 Z M 106.90398025512695 0.5329971313476562 C 107.50699234008789 0.871002197265625 107.98897171020508 1.3330001831054688 108.34097671508789 1.9130020141601562 C 108.69331741333008 2.4889068603515625 108.87761306762695 3.1518707275390625 108.87295913696289 3.8270034790039062 C 108.87912368774414 4.505790710449219 108.69482803344727 5.172698974609375 108.34097671508789 5.7519989013671875 C 107.98999404907227 6.33056640625 107.49484634399414 6.808135986328125 106.90398025512695 7.13800048828125 C 106.29933547973633 7.4798583984375 105.61554336547852 7.6570892333984375 104.92099380493164 7.652000427246094 C 104.22029495239258 7.6602630615234375 103.52994155883789 7.4829254150390625 102.91997146606445 7.13800048828125 C 102.31698989868164 6.797996520996094 101.83499526977539 6.333000183105469 101.48297500610352 5.7519989013671875 C 101.13098526000977 5.170997619628906 100.95099258422852 4.527000427246094 100.95099258422852 3.8270034790039062 C 100.9443244934082 3.1490859985351562 101.12868118286133 2.483001708984375 101.48297500610352 1.904998779296875 C 101.83127212524414 1.3268508911132812 102.32727432250977 0.8519058227539062 102.91997146606445 0.5289993286132812 C 103.52397537231445 0.19499969482421875 104.18999099731445 0.0260009765625 104.91997146606445 0.0260009765625 C 105.63797378540039 0.0260009765625 106.29997634887695 0.19100189208984375 106.90298843383789 0.5329971313476562 Z M 103.38098526000977 1.2480010986328125 C 102.91885757446289 1.5061187744140625 102.53053665161133 1.8782730102539062 102.25297927856445 2.3290023803710938 C 101.97298049926758 2.7819976806640625 101.8289680480957 3.2809982299804688 101.8289680480957 3.8270034790039062 C 101.8289680480957 4.3730010986328125 101.9689826965332 4.878997802734375 102.25297927856445 5.334999084472656 C 102.81776809692383 6.266563415527344 103.83264541625977 6.830467224121094 104.9219856262207 6.818000793457031 C 105.4789924621582 6.818000793457031 105.98897171020508 6.68499755859375 106.45596694946289 6.417999267578125 C 106.91589736938477 6.159080505371094 107.30078506469727 5.785224914550781 107.57297134399414 5.333000183105469 C 107.84997940063477 4.8769989013671875 107.98999404907227 4.3730010986328125 107.98999404907227 3.8249969482421875 C 107.99466323852539 3.295440673828125 107.85017776489258 2.7752532958984375 107.57297134399414 2.3239974975585938 C 107.29947280883789 1.8746261596679688 106.9147834777832 1.5033493041992188 106.45596694946289 1.246002197265625 C 105.99040603637695 0.9793319702148438 105.46252822875977 0.8406295776367188 104.92596817016602 0.8440017700195312 C 104.3847541809082 0.8386306762695312 103.85187149047852 0.9773788452148438 103.38197708129883 1.246002197265625 Z M 118.8069953918457 6.8130035400390625 C 118.24296951293945 7.370002746582031 117.46696853637695 7.650001525878906 116.4799690246582 7.650001525878906 C 115.4849739074707 7.650001525878906 114.70596694946289 7.370002746582031 114.14198684692383 6.8130035400390625 C 113.5779914855957 6.2559967041015625 113.29399490356445 5.483001708984375 113.29399490356445 4.493003845214844 L 113.29399490356445 0.03900146484375 L 114.15999221801758 0.03900146484375 L 114.15999221801758 4.483001708984375 C 114.15999221801758 5.2129974365234375 114.36798477172852 5.779998779296875 114.77998733520508 6.189002990722656 C 115.19197463989258 6.597999572753906 115.75996780395508 6.803001403808594 116.4799690246582 6.803001403808594 C 117.19998550415039 6.803001403808594 117.76599502563477 6.597999572753906 118.17197036743164 6.2030029296875 C 118.57797622680664 5.8079986572265625 118.77197647094727 5.2259979248046875 118.77197647094727 4.489997863769531 L 118.77197647094727 0.03600311279296875 L 119.63795852661133 0.03600311279296875 L 119.63795852661133 4.489997863769531 C 119.64197158813477 5.4850006103515625 119.36098098754883 6.2570037841796875 118.79799270629883 6.814002990722656 Z M 130.11198806762695 7.607002258300781 L 125.57596206665039 1.5329971313476562 L 125.57596206665039 7.607002258300781 L 124.70996475219727 7.607002258300781 L 124.70996475219727 0.042999267578125 L 125.60797500610352 0.042999267578125 L 130.1439552307129 6.1230010986328125 L 130.1439552307129 0.042999267578125 L 130.99899673461914 0.042999267578125 L 130.99899673461914 7.607002258300781 Z M 141.20798110961914 0.542999267578125 C 141.80798721313477 0.8769989013671875 142.26396560668945 1.3300018310546875 142.6049690246582 1.9029998779296875 C 142.94855117797852 2.4847259521484375 143.12634658813477 3.1494216918945312 143.11897659301758 3.8249969482421875 C 143.11897659301758 4.528999328613281 142.94697952270508 5.1750030517578125 142.6049690246582 5.75 C 142.2663459777832 6.3229827880859375 141.77824783325195 6.7930908203125 141.1929817199707 7.1100006103515625 C 140.59297561645508 7.44000244140625 139.92895889282227 7.6060028076171875 139.19997024536133 7.6060028076171875 L 136.1719856262207 7.6060028076171875 L 136.1719856262207 0.042999267578125 L 139.23198318481445 0.042999267578125 C 139.96196365356445 0.042999267578125 140.61796951293945 0.20800018310546875 141.20698928833008 0.542999267578125 Z M 137.03798294067383 6.785003662109375 L 139.24296951293945 6.785003662109375 C 139.79997634887695 6.785003662109375 140.30597305297852 6.65899658203125 140.76298904418945 6.404998779296875 C 141.2199592590332 6.1510009765625 141.58296585083008 5.797996520996094 141.84796524047852 5.345001220703125 C 142.11296463012695 4.891998291015625 142.24797439575195 4.392997741699219 142.24797439575195 3.8369979858398438 C 142.25461196899414 3.3074188232421875 142.11406326293945 2.7863998413085938 141.84198379516602 2.332000732421875 C 141.57197952270508 1.8820037841796875 141.20599746704102 1.5319976806640625 140.74196243286133 1.2689971923828125 C 140.27479934692383 1.0074844360351562 139.74733352661133 0.8726882934570312 139.21199417114258 0.8779983520507812 L 137.0389747619629 0.8779983520507812 L 137.0389747619629 6.786003112792969 Z M 148.03998184204102 5.68499755859375 L 147.1959571838379 7.584999084472656 L 146.27597427368164 7.584999084472656 L 149.67596817016602 0.02100372314453125 L 150.57397842407227 0.02100372314453125 L 153.95398330688477 7.584999084472656 L 153.01996231079102 7.584999084472656 L 152.17598342895508 5.68499755859375 L 148.0489845275879 5.68499755859375 Z M 150.09396743774414 1.0149993896484375 L 148.40996170043945 4.8509979248046875 L 151.80995559692383 4.8509979248046875 L 150.1039924621582 1.0149993896484375 Z M 159.61897659301758 0.8649978637695312 L 159.61897659301758 7.595001220703125 L 158.75697708129883 7.595001220703125 L 158.75697708129883 0.8649978637695312 L 156.29997634887695 0.8649978637695312 L 156.29997634887695 0.0319976806640625 L 162.0969581604004 0.0319976806640625 L 162.0969581604004 0.8649978637695312 Z M 166.25899124145508 7.595001220703125 L 166.25899124145508 0.042999267578125 L 167.12497329711914 0.042999267578125 L 167.12497329711914 7.607002258300781 L 166.25899124145508 7.607002258300781 Z M 177.67396926879883 0.5329971313476562 C 178.27698135375977 0.871002197265625 178.75899124145508 1.3330001831054688 179.11096572875977 1.9130020141601562 C 179.46330642700195 2.4889068603515625 179.64760208129883 3.1518707275390625 179.6429786682129 3.8270034790039062 C 179.64909744262695 4.505790710449219 179.46481704711914 5.172698974609375 179.11096572875977 5.7519989013671875 C 178.75998306274414 6.33056640625 178.26483535766602 6.808135986328125 177.67396926879883 7.13800048828125 C 177.0693244934082 7.4798583984375 176.38556289672852 7.6570892333984375 175.6909523010254 7.652000427246094 C 174.99031448364258 7.6602630615234375 174.29993057250977 7.4829254150390625 173.68996047973633 7.13800048828125 C 173.08697891235352 6.797996520996094 172.6049690246582 6.333000183105469 172.25299453735352 5.7519989013671875 C 171.90097427368164 5.170997619628906 171.7209815979004 4.527000427246094 171.7209815979004 3.8270034790039062 C 171.71431350708008 3.1490859985351562 171.89870071411133 2.483001708984375 172.25299453735352 1.904998779296875 C 172.60129165649414 1.3268508911132812 173.09726333618164 0.8519058227539062 173.68996047973633 0.5289993286132812 C 174.29396438598633 0.19499969482421875 174.95996475219727 0.0260009765625 175.68999099731445 0.0260009765625 C 176.40796279907227 0.0260009765625 177.06999588012695 0.19100189208984375 177.67297744750977 0.5329971313476562 Z M 174.15097427368164 1.2480010986328125 C 173.6888313293457 1.5061187744140625 173.3005256652832 1.8782730102539062 173.02296829223633 2.3290023803710938 C 172.74296951293945 2.7819976806640625 172.5989875793457 3.2809982299804688 172.5989875793457 3.8270034790039062 C 172.5989875793457 4.3730010986328125 172.73897171020508 4.878997802734375 173.02296829223633 5.334999084472656 C 173.5877571105957 6.266563415527344 174.60263442993164 6.830467224121094 175.69197463989258 6.818000793457031 C 176.24898147583008 6.818000793457031 176.75899124145508 6.68499755859375 177.22595596313477 6.417999267578125 C 177.68591690063477 6.159080505371094 178.07077407836914 5.785224914550781 178.34299087524414 5.333000183105469 C 178.61996841430664 4.8769989013671875 178.75998306274414 4.3730010986328125 178.75998306274414 3.8249969482421875 C 178.76465225219727 3.295440673828125 178.6201515197754 2.7752532958984375 178.34299087524414 2.3239974975585938 C 178.0694923400879 1.8746261596679688 177.68477249145508 1.5033493041992188 177.22595596313477 1.246002197265625 C 176.7603645324707 0.9793319702148438 176.23251724243164 0.8406295776367188 175.69598770141602 0.8440017700195312 C 175.15480422973633 0.839111328125 174.62204360961914 0.9778213500976562 174.1519660949707 1.246002197265625 Z M 189.62695693969727 7.608001708984375 L 185.0909767150879 1.53399658203125 L 185.0909767150879 7.608001708984375 L 184.22497940063477 7.608001708984375 L 184.22497940063477 0.042999267578125 L 185.12297439575195 0.042999267578125 L 189.6589698791504 6.1230010986328125 L 189.6589698791504 0.042999267578125 L 190.51396560668945 0.042999267578125 L 190.51396560668945 7.607002258300781 L 189.62695693969727 7.607002258300781 Z" stroke="none" stroke-linejoin="miter" stroke-linecap="butt" fill="#ffffff" fill-rule="nonzero" stroke-width="1.000000596046803" fill-opacity="1"/></g><g id="klrf3vrwgw" transform="translate(36.62000209093094 4.996003610813204e-16)" class="NoPrint.cls"><path d="M 7.55999755859375 0.49235165949492066 C 5.933002471923828 1.4553514205995044 3.228008270263672 4.17235095139174 0 8.1173501693788 L 2.96697998046875 13.717350550848527 C 5.049995422363281 10.740351268011613 7.166999816894531 8.060351916510148 9.299003601074219 5.772350856024309 L 9.549007415771484 5.502350398260637 L 9.299003601074219 5.772350856024309 C 8.599002838134766 6.532350608068986 6.5149993896484375 8.976352282721086 3.35498046875 13.832350321966691 C 6.396995544433594 13.682350703436418 11.074981689453125 13.056350299078508 14.887996673583984 12.40635163422255 C 16.022994995117188 6.049352236944719 13.775009155273438 3.1393509590211353 13.775009155273438 3.1393509590211353 C 13.775009155273438 3.1393509590211353 10.911994934082031 -1.4866470611509839 7.55999755859375 0.49235165949492066 Z" stroke="none" stroke-linejoin="miter" stroke-linecap="butt" fill="#ffffff" fill-rule="nonzero" stroke-width="1.000000596046803" fill-opacity="1"/></g><g id="klrf3vrygx" transform="translate(33.04699641466141 47.51534516449599)" class="NoPrint.cls"><path d="M 1.1670036315917969 0.0030059814453125 L 0 0.20800018310546875 L 0.6000022888183594 0.11500167846679688 L 1.1779937744140625 0 Z" stroke="none" stroke-linejoin="miter" stroke-linecap="butt" fill="#ffffff" fill-rule="nonzero" stroke-width="1.000000596046803" fill-opacity="1"/></g><g id="klrf3vrzgy" transform="translate(33.04699641466141 47.51534516449599)" class="NoPrint.cls"><path d="M 1.1670036315917969 0.0030059814453125 L 0 0.20800018310546875 L 0.6000022888183594 0.11500167846679688 L 1.1779937744140625 0 Z" stroke="none" stroke-linejoin="miter" stroke-linecap="butt" fill="#ffffff" opacity="0.35" fill-rule="nonzero" stroke-width="1.000000596046803" fill-opacity="1"/></g><g id="klrf3vrzgz" transform="translate(35.20001536607742 42.460348674017474)" class="NoPrint.cls"><path d="M 0 0.16300201416015625 L 0.17999649047851562 0.13299942016601562 L 0.9229927062988281 0 L 0 0.15800094604492188 Z" stroke="none" stroke-linejoin="miter" stroke-linecap="butt" fill="#ffffff" fill-rule="nonzero" stroke-width="1.000000596046803" fill-opacity="1"/></g><g id="klrf3vs0h0" transform="translate(35.20001536607742 42.460348674017474)" class="NoPrint.cls"><path d="M 0 0.16300201416015625 L 0.17999649047851562 0.13299942016601562 L 0.9229927062988281 0 L 0 0.15800094604492188 Z" stroke="none" stroke-linejoin="miter" stroke-linecap="butt" fill="#ffffff" opacity="0.35" fill-rule="nonzero" stroke-width="1.000000596046803" fill-opacity="1"/></g><g id="klrf3vs0h1" transform="translate(24.47599345445633 8.117350169378803)" class="NoPrint.cls"><path d="M 6.362009048461914 20.066999435424805 L 9.099010467529297 15.131999969482422 L 12.004989624023438 10.293998718261719 L 12.177009582519531 10.017000198364258 L 15.107017517089844 5.603001594543457 L 12.140003204345703 0 L 11.464996337890625 0.8330020904541016 L 8.81100845336914 4.263001441955566 L 5.65800666809082 8.632999420166016 L 2.658008575439453 13.076000213623047 L 0 17.270999908447266 L 3.8600006103515625 24.895999908447266 L 6.360006332397461 20.06599998474121 Z" stroke="none" stroke-linejoin="miter" stroke-linecap="butt" fill="#ffffff" fill-rule="nonzero" stroke-width="1.000000596046803" fill-opacity="1"/></g><g id="klrf3vs2h2" transform="translate(10.131002724170685 66.27634675141005)" class="NoPrint.cls"><path d="M 3.1220035552978516 4.874000549316406 L 1.340001106262207 9.851997375488281 L 0 13.737998962402344 C 1.1399955749511719 14.25799560546875 2.0499954223632812 15.624000549316406 2.912994384765625 17.1719970703125 C 2.8283462524414062 15.535865783691406 2.1026363372802734 13.998924255371094 0.8930034637451172 12.893997192382812 C 6.500002861022949 13.143997192382812 11.329998970031738 11.729995727539062 13.826992988586426 7.628997802734375 C 14.05408763885498 7.256507873535156 14.258131980895996 6.870452880859375 14.438000679016113 6.472999572753906 C 13.302987098693848 7.913002014160156 11.894997596740723 8.523002624511719 9.237998008728027 8.376998901367188 C 9.230998039245605 8.376998901367188 9.228001594543457 8.376998901367188 9.219992637634277 8.387001037597656 C 9.2269926071167 8.387001037597656 9.229989051818848 8.387001037597656 9.237998008728027 8.376998901367188 C 13.137999534606934 6.6309967041015625 15.095995903015137 4.954002380371094 16.823994636535645 2.177001953125 C 17.259699821472168 1.4690780639648438 17.664742469787598 0.7427444458007812 18.03800106048584 0 C 14.629998207092285 3.5019989013671875 10.675000190734863 4.5 6.512001991271973 3.7429962158203125 L 3.392000198364258 4.083000183105469 C 3.305990219116211 4.345001220703125 3.208991050720215 4.607002258300781 3.1119909286499023 4.88299560546875 Z" stroke="none" stroke-linejoin="miter" stroke-linecap="butt" fill="#ffffff" fill-rule="nonzero" stroke-width="1.000000596046803" fill-opacity="1"/></g><g id="klrf3vs3h3" transform="translate(8.803992569446564 25.385349818426654)" class="NoPrint.cls"><path d="M 5.8960113525390625 38.772993087768555 L 7.979007720947266 33.48599433898926 L 10.079002380371094 28.343000411987305 L 12.27700424194336 23.163000106811523 L 14.607009887695312 17.900999069213867 L 16.99901008605957 12.753999710083008 L 17.883010864257812 10.921998977661133 L 19.431013107299805 7.789999008178711 L 19.51700782775879 7.624998092651367 L 15.657005310058594 0 L 15.457000732421875 0.2999992370605469 L 12.796010971069336 4.815000534057617 L 10.19601058959961 9.545000076293945 L 8.091001510620117 13.644998550415039 L 7.685014724731445 14.477998733520508 L 5.397012710571289 19.477998733520508 L 3.3320064544677734 24.690000534057617 L 2.252004623413086 27.82999610900879 L 1.4800138473510742 30.409997940063477 L 0 36.45499610900879 L 3.875011444091797 44.11999320983887 L 5.455004692077637 39.95399284362793 L 5.908010482788086 38.77599906921387 Z" stroke="none" stroke-linejoin="miter" stroke-linecap="butt" fill="#ffffff" fill-rule="nonzero" stroke-width="1.000000596046803" fill-opacity="1"/></g><g id="klrf3vs4h4" transform="translate(0 61.84034592743544)" class="NoPrint.cls"><path d="M 8.746000587940216 0.2750053405761719 C 8.257992088794708 2.7250022888183594 7.913007080554962 5.167003631591797 7.7399943470954895 7.594997406005859 L 7.722004234790802 7.850002288818359 C 6.521998703479767 5.909999847412109 3.267991840839386 4.013996124267578 3.276001751422882 4.035999298095703 C 5.595994293689728 7.400997161865234 7.360006153583527 10.742000579833984 7.618004143238068 14.020999908447266 C 6.3750017285346985 14.275997161865234 4.673002064228058 13.906002044677734 2.7049947381019592 13.184001922607422 C 4.7550066113471985 15.070003509521484 6.297001659870148 15.59000015258789 6.9049981236457825 15.729999542236328 C 5.009992897510529 15.848003387451172 3.0599916577339172 17.130001068115234 1.0849999785423279 18.631999969482422 C 3.985002815723419 17.453998565673828 6.311002552509308 16.987003326416016 7.98499995470047 17.364002227783203 C 5.3200066685676575 24.859996795654297 2.659995138645172 33.15999221801758 0 41.95999526977539 C 0.815003514289856 41.71999740600586 1.3000007271766663 41.17300033569336 1.576997697353363 40.429996490478516 C 2.0510054230690002 38.83499526977539 5.19700700044632 28.37600326538086 10.124994575977325 14.634998321533203 L 10.667005836963654 13.122997283935547 L 12.287000954151154 8.709003448486328 L 12.670994102954865 7.682003021240234 C 12.674998581409454 7.672000885009766 12.674998581409454 7.668003082275391 12.677994072437286 7.659999847412109 L 8.802998840808868 0 L 8.746000587940216 0.27300262451171875 Z" stroke="none" stroke-linejoin="miter" stroke-linecap="butt" fill="#ffffff" fill-rule="nonzero" stroke-width="1.000000596046803" fill-opacity="1"/></g><g id="klrf3vs6h5" transform="translate(13.545991241931915 30.682348796087787)" class="NoPrint.cls"><path d="M 15.389013290405273 2.9720001220703125 L 15.055000305175781 3.658000946044922 L 14.038997650146484 5.770000457763672 L 12.915006637573242 8.158000946044922 L 12.340009689331055 9.4010009765625 L 10.584007263183594 13.301002502441406 L 8.357009887695312 18.430999755859375 L 6.170013427734375 23.685997009277344 L 4.040014266967773 29.01199722290039 L 2.1000099182128906 34.04399490356445 L 0 39.68899917602539 L 3.1200008392333984 39.348995208740234 L 2.9340133666992188 39.317996978759766 C 6.6660003662109375 38.85099411010742 11.629007339477539 36.06399917602539 14.837005615234375 32.6199951171875 C 16.312997817993164 31.031997680664062 17.657005310058594 29.15999984741211 18.896997451782227 26.970001220703125 C 19.82002067565918 25.34000015258789 20.697004318237305 23.529998779296875 21.511991500854492 21.53000259399414 C 22.233999252319336 19.78000259399414 22.92701530456543 17.88800048828125 23.595003128051758 15.833999633789062 C 22.73702049255371 16.287002563476562 21.7550106048584 16.61699676513672 20.671018600463867 16.847000122070312 L 20.09299659729004 16.947002410888672 C 19.8950252532959 16.98217010498047 19.696317672729492 17.013179779052734 19.496999740600586 17.040000915527344 C 22.98500633239746 15.700000762939453 25.17900276184082 13.118000030517578 26.77399253845215 9.94000244140625 C 25.858015060424805 10.56500244140625 24.371000289916992 11.380001068115234 22.58601951599121 11.775001525878906 C 22.340177536010742 11.82900619506836 22.092321395874023 11.873374938964844 21.842992782592773 11.908000946044922 L 21.656007766723633 11.937999725341797 L 21.662992477416992 11.937999725341797 C 22.87001609802246 11.430999755859375 23.889989852905273 10.868000030517578 24.763002395629883 10.200000762939453 C 24.96299171447754 10.055999755859375 25.136999130249023 9.900001525878906 25.312990188598633 9.757999420166016 C 25.58244514465332 9.525691986083984 25.840105056762695 9.280052185058594 26.08501625061035 9.02199935913086 C 26.242647171020508 8.857120513916016 26.39470863342285 8.687026977539062 26.540998458862305 8.512001037597656 C 26.88599967956543 8.0989990234375 27.212995529174805 7.653999328613281 27.514005661010742 7.172000885009766 C 27.607912063598633 7.022769927978516 27.698938369750977 6.871742248535156 27.787015914916992 6.719001770019531 L 28.12099266052246 6.062000274658203 C 28.549169540405273 5.20574951171875 28.94447135925293 4.333446502685547 29.306005477905273 3.447002410888672 C 29.46001625061035 3.0670013427734375 29.606019973754883 2.7110023498535156 29.712007522583008 2.3800010681152344 L 29.845003128051758 2 C 29.967008590698242 1.634002685546875 30.0679988861084 1.3070030212402344 30.147008895874023 1.0200004577636719 C 30.266996383666992 0.5900001525878906 30.34699821472168 0.2480010986328125 30.37701988220215 0 C 30.25699806213379 0.09300041198730469 30.122018814086914 0.18700027465820312 29.97101402282715 0.27700042724609375 C 28.91900062561035 0.9050006866455078 27.116010665893555 1.4770011901855469 25.665010452270508 1.7420005798339844 L 28.531003952026367 1.4260025024414062 L 25.665010452270508 1.7420005798339844 C 25.64299964904785 1.7420005798339844 25.622011184692383 1.7519989013671875 25.600000381469727 1.7519989013671875 L 25.162023544311523 1.8240013122558594 C 25.187013626098633 1.8139991760253906 25.212003707885742 1.7989997863769531 25.23699378967285 1.7880020141601562 L 15.432008743286133 2.86199951171875 C 15.418008804321289 2.9020004272460938 15.400001525878906 2.937000274658203 15.382011413574219 2.9620018005371094 Z" stroke="none" stroke-linejoin="miter" stroke-linecap="butt" fill="#ffffff" fill-rule="nonzero" stroke-width="1.000000596046803" fill-opacity="1"/></g><g id="klrf3vs7h6" transform="translate(28.98299914598465 12.406351634222553)" class="NoPrint.cls"><path d="M 10.989004135131836 1.4259986877441406 L 8.13701057434082 6.005998611450195 L 7.97498893737793 6.278997421264648 L 5.16301155090332 11.198997497558594 L 2.4930057525634766 16.190998077392578 L 0 21.14099884033203 L 9.804983139038086 20.066997528076172 C 12.65998649597168 18.751998901367188 13.939001083374023 17.563997268676758 15.177999496459961 15.842998504638672 L 16.16600227355957 14.35999870300293 L 19.04298210144043 9.334997177124023 L 21.223012924194336 4.539997100830078 L 22.089006423950195 1.9429988861083984 L 22.5159969329834 0 C 18.70900535583496 0.649998664855957 14.029001235961914 1.274998664855957 10.985990524291992 1.4259986877441406 Z" stroke="none" stroke-linejoin="miter" stroke-linecap="butt" fill="#ffffff" fill-rule="nonzero" stroke-width="1.000000596046803" fill-opacity="1"/></g><g id="klrf3vs8h7" transform="translate(33.04001170396805 47.63034684296279)" class="NoPrint.cls"><path d="M 0.5959968566894531 0 L 0 0.09299850463867188 Z" stroke="none" stroke-linejoin="miter" stroke-linecap="butt" fill="#ffffff" fill-rule="nonzero" stroke-width="1.000000596046803" fill-opacity="1"/></g><g id="klrf3vs9h8" transform="translate(33.04001170396805 47.63034684296279)" class="NoPrint.cls"><path d="M 0.5959968566894531 0 L 0 0.09299850463867188 Z" stroke="none" stroke-linejoin="miter" stroke-linecap="butt" fill="#ffffff" opacity="0.35" fill-rule="nonzero" stroke-width="1.000000596046803" fill-opacity="1"/></g><g id="klrf3vs9h9" transform="translate(33.04001170396805 47.63034684296279)" class="NoPrint.cls"><path d="M 0.5959968566894531 0 L 0 0.09299850463867188 Z" stroke="none" stroke-linejoin="miter" stroke-linecap="butt" fill="#ffffff" fill-rule="nonzero" stroke-width="1.000000596046803" fill-opacity="1"/></g><g id="klrf3vs9ha" transform="translate(35.19799357652664 42.59635026093154)" class="NoPrint.cls"><path d="M 0 0.029998779296875 L 0.18701553344726562 0 Z" stroke="none" stroke-linejoin="miter" stroke-linecap="butt" fill="#ffffff" fill-rule="nonzero" stroke-width="1.000000596046803" fill-opacity="1"/></g><g id="klrf3vsahb" transform="translate(35.19799357652664 42.59635026093154)" class="NoPrint.cls"><path d="M 0 0.029998779296875 L 0.18701553344726562 0 Z" stroke="none" stroke-linejoin="miter" stroke-linecap="butt" fill="#ffffff" opacity="0.35" fill-rule="nonzero" stroke-width="1.000000596046803" fill-opacity="1"/></g><g id="klrf3vsbhc" transform="translate(35.19799357652664 42.59635026093154)" class="NoPrint.cls"><path d="M 0 0.029998779296875 L 0.18701553344726562 0 Z" stroke="none" stroke-linejoin="miter" stroke-linecap="butt" fill="#ffffff" fill-rule="nonzero" stroke-width="1.000000596046803" fill-opacity="1"/></g></g></g></svg><svg id="kke7z0twti" height="1050" overflow="visible" v:setup="{&quot;paper&quot;:&quot;CUSTOM&quot;,&quot;unit&quot;:&quot;m&quot;,&quot;scale&quot;:{&quot;from&quot;:&quot;1&quot;,&quot;to&quot;:&quot;1&quot;},&quot;width&quot;:&quot;297mm&quot;,&quot;height&quot;:&quot;210mm&quot;}" viewBox="0 0 1122.5197162628174 793.7008094787598" width="1485" style="display: none;" class=""/><svg id="kkgwfsnnow" height="503.99999999999994" overflow="visible" v:setup="{&quot;paper&quot;:&quot;CUSTOM&quot;,&quot;unit&quot;:&quot;m&quot;,&quot;scale&quot;:{&quot;from&quot;:&quot;1&quot;,&quot;to&quot;:&quot;1&quot;},&quot;width&quot;:&quot;297mm&quot;,&quot;height&quot;:&quot;210mm&quot;}" viewBox="0 0 1122.5197162628174 793.7008094787598" width="712.8" style="display: none;" class=""/><svg id="kkoc4qq611s" height="588" overflow="visible" v:setup="{&quot;paper&quot;:&quot;CUSTOM&quot;,&quot;unit&quot;:&quot;m&quot;,&quot;scale&quot;:{&quot;from&quot;:&quot;1&quot;,&quot;to&quot;:&quot;1&quot;},&quot;width&quot;:&quot;297mm&quot;,&quot;height&quot;:&quot;210mm&quot;}" viewBox="0 0 1122.5197162628174 793.7008094787598" width="831.5999999999999" style="display: none;" class=""/><svg id="kks93ljqja" height="420.00000000000006" overflow="visible" v:setup="{&quot;paper&quot;:&quot;CUSTOM&quot;,&quot;unit&quot;:&quot;m&quot;,&quot;scale&quot;:{&quot;from&quot;:&quot;1&quot;,&quot;to&quot;:&quot;1&quot;},&quot;width&quot;:&quot;297mm&quot;,&quot;height&quot;:&quot;210mm&quot;}" viewBox="0 0 1122.5197162628174 793.7008094787598" width="594.0000000000001" style="display: none;" class=""/><svg id="kktm2rmom2" height="420.00000000000006" overflow="visible" v:setup="{&quot;paper&quot;:&quot;CUSTOM&quot;,&quot;unit&quot;:&quot;m&quot;,&quot;scale&quot;:{&quot;from&quot;:&quot;1&quot;,&quot;to&quot;:&quot;1&quot;},&quot;width&quot;:&quot;297mm&quot;,&quot;height&quot;:&quot;210mm&quot;}" viewBox="0 0 1122.5197162628174 793.7008094787598" width="594.0000000000001" style="display: none;" class=""/><svg id="kl2bknk9s3" height="588" overflow="visible" v:setup="{&quot;paper&quot;:&quot;CUSTOM&quot;,&quot;unit&quot;:&quot;m&quot;,&quot;scale&quot;:{&quot;from&quot;:&quot;1&quot;,&quot;to&quot;:&quot;1&quot;},&quot;width&quot;:&quot;297mm&quot;,&quot;height&quot;:&quot;210mm&quot;}" viewBox="0 0 1122.5197162628174 793.7008094787598" width="831.5999999999999" style="display: none;" class=""/><svg id="kl2bkogasd" height="588" overflow="visible" v:setup="{&quot;paper&quot;:&quot;CUSTOM&quot;,&quot;unit&quot;:&quot;m&quot;,&quot;scale&quot;:{&quot;from&quot;:&quot;1&quot;,&quot;to&quot;:&quot;1&quot;},&quot;width&quot;:&quot;297mm&quot;,&quot;height&quot;:&quot;210mm&quot;}" viewBox="0 0 1122.5197162628174 793.7008094787598" width="831.5999999999999" style="display: none;" class=""/><svg id="kl2bkoy3sn" height="588" overflow="visible" v:setup="{&quot;paper&quot;:&quot;CUSTOM&quot;,&quot;unit&quot;:&quot;m&quot;,&quot;scale&quot;:{&quot;from&quot;:&quot;1&quot;,&quot;to&quot;:&quot;1&quot;},&quot;width&quot;:&quot;297mm&quot;,&quot;height&quot;:&quot;210mm&quot;}" viewBox="0 0 1122.5197162628174 793.7008094787598" width="831.5999999999999" style="display: none;" class=""/><svg id="klbzfjcgmj" height="503.99999999999994" overflow="visible" v:setup="{&quot;paper&quot;:&quot;CUSTOM&quot;,&quot;unit&quot;:&quot;m&quot;,&quot;scale&quot;:{&quot;from&quot;:&quot;1&quot;,&quot;to&quot;:&quot;1&quot;},&quot;width&quot;:&quot;297mm&quot;,&quot;height&quot;:&quot;210mm&quot;}" viewBox="0 0 1122.5197162628174 793.7008094787598" width="712.8" style="display: none;" class=""/><svg id="klhpdnivq9" height="756" overflow="visible" v:setup="{&quot;paper&quot;:&quot;CUSTOM&quot;,&quot;unit&quot;:&quot;m&quot;,&quot;scale&quot;:{&quot;from&quot;:&quot;1&quot;,&quot;to&quot;:&quot;1&quot;},&quot;width&quot;:&quot;297mm&quot;,&quot;height&quot;:&quot;210mm&quot;}" viewBox="0 0 1122.5197162628174 793.7008094787598" width="1069.2" style="display: none;" class=""/><svg id="klhpdnwwri" height="756" overflow="visible" v:setup="{&quot;paper&quot;:&quot;CUSTOM&quot;,&quot;unit&quot;:&quot;m&quot;,&quot;scale&quot;:{&quot;from&quot;:&quot;1&quot;,&quot;to&quot;:&quot;1&quot;},&quot;width&quot;:&quot;297mm&quot;,&quot;height&quot;:&quot;210mm&quot;}" viewBox="0 0 1122.5197162628174 793.7008094787598" width="1069.2" style="display: none;" class=""/></svg>